<?xml version="1.0" encoding="UTF-8"?>
<svg version="1.1" xmlns="http://www.w3.org/2000/svg" width="1024" height="1024">
<path d="M0 0 C0.76142781 -0.00175304 1.52285563 -0.00350607 2.30735701 -0.00531223 C4.84951734 -0.00995066 7.39161993 -0.00751231 9.93378258 -0.00507832 C11.77862036 -0.00694738 13.62345774 -0.00924846 15.4682945 -0.01194364 C20.5311007 -0.01805634 25.59389037 -0.01792866 30.65669942 -0.01674926 C36.11972956 -0.01654512 41.58275441 -0.02206535 47.04578209 -0.02680683 C57.74693275 -0.03511129 68.4480779 -0.03786159 79.14923151 -0.03841921 C87.8493416 -0.03889451 96.54944988 -0.04094998 105.2495594 -0.04411983 C129.92258842 -0.05292623 154.59561365 -0.05754537 179.26864417 -0.05678936 C179.93338566 -0.05676942 180.59812715 -0.05674947 181.28301232 -0.05672892 C182.627282 -0.05668848 183.97155168 -0.05664669 185.31582136 -0.05660353 C206.22228536 -0.05599101 227.12873313 -0.06349349 248.03519249 -0.07717609 C271.53662995 -0.09255077 295.03805852 -0.1011288 318.53950155 -0.10021287 C330.97789839 -0.09988107 343.41627693 -0.10262083 355.85466957 -0.11339092 C366.44621933 -0.12250316 377.03774249 -0.12466525 387.62929447 -0.1178815 C393.03046377 -0.11461983 398.43158207 -0.11454688 403.83274651 -0.12323475 C408.78368917 -0.13111631 413.73454052 -0.1296514 418.685481 -0.12095062 C420.47013635 -0.11941927 422.25479858 -0.12121793 424.03944583 -0.12681069 C449.75483179 -0.20201719 471.38281738 4.54346497 491.05814171 22.12863445 C491.98884483 22.95234539 492.91954796 23.77605633 493.87845421 24.6247282 C500.55735695 30.88503676 505.17877697 37.63824852 509.60843468 45.56564617 C512.38468085 50.47386986 515.27216029 55.3179127 518.13400841 60.17654705 C520.00333914 63.35409112 521.86491862 66.53616208 523.72611046 69.7184782 C524.09508446 70.34931316 524.46405846 70.98014812 524.84421349 71.6300993 C528.81820747 78.42618581 532.78424342 85.22691009 536.74832726 92.02878094 C540.97621734 99.28097481 545.21824232 106.52478783 549.46542931 113.7656889 C559.90486244 131.56368912 570.32634173 149.37115271 580.62064171 167.25363445 C585.76392663 176.18649964 590.96342296 185.08322994 596.21903038 193.9504118 C605.75028201 210.03594337 615.11964533 226.21529736 624.45218468 242.41672039 C628.63120261 249.66755978 632.83543828 256.90315941 637.05814171 264.12863445 C645.08095849 277.85910262 653.01672498 291.63941531 660.95364952 305.41965008 C669.93931662 321.01828621 678.97447735 336.58687529 688.05814171 352.12863445 C703.76912974 379.01178811 703.76912974 379.01178811 708.19095421 386.8591032 C709.55101464 389.24063161 710.93788337 391.58759417 712.36282921 393.9294157 C724.53509093 414.2397465 728.33526494 437.09710093 722.57523155 460.21115398 C718.86453618 473.97121133 711.26072898 485.73376025 704.00198936 497.85812664 C700.71196803 503.39356068 697.51433483 508.9818756 694.30814171 514.56613445 C689.87623029 522.26390165 685.41869057 529.94448993 680.8982296 537.59054852 C677.13328837 543.97180483 673.44086106 550.39432288 669.74564171 556.81613445 C664.52051601 565.89311144 659.24163259 574.93521304 653.90042686 583.94430828 C648.16470088 593.62258012 642.50297758 603.34361996 636.84183311 613.06564617 C622.10903135 638.36508922 622.10903135 638.36508922 615.08963585 650.27804852 C612.4272641 654.79762852 609.77188679 659.32126932 607.12064171 663.84738445 C606.76791191 664.44954281 606.41518211 665.05170116 606.05176353 665.67210674 C605.32079472 666.919995 604.58982754 668.16788422 603.85886192 669.41577435 C597.24856538 680.70010396 590.61618739 691.97096797 583.95657921 703.2262907 C580.98746848 708.24503935 578.03288678 713.27223855 575.08035851 718.30075359 C572.1077631 723.35767134 569.11610422 728.40312399 566.12106895 733.4467802 C560.37066181 743.13101961 554.62554514 752.81291361 549.07376671 762.61300945 C545.93907712 768.11325861 542.6878292 773.54595804 539.46097374 778.99240398 C535.58660895 785.53458018 531.73241846 792.08829339 527.89188194 798.65036297 C526.45829565 801.09982698 525.02289311 803.54821094 523.5857296 805.99557781 C522.86167538 807.22872359 522.13763569 808.46187791 521.41361046 809.6950407 C521.05430946 810.30695766 520.69500847 810.91887463 520.32481956 811.54933453 C518.14013581 815.27352007 515.96845513 819.00494014 513.80638695 822.74229717 C512.39922198 825.17120585 510.98432864 827.59555868 509.56805992 830.0191679 C508.59669315 831.68742495 507.63519055 833.36141369 506.67410851 835.03561687 C494.40795517 855.97540146 476.61494997 871.65351641 452.84241194 877.98511469 C442.60759985 880.20077396 432.79997633 880.55261807 422.35417747 880.50958538 C420.50472137 880.51304898 418.65526733 880.51781824 416.80581754 880.52376711 C411.76263545 880.53621036 406.71962519 880.53013732 401.67644274 880.52080846 C396.22235022 880.51399073 390.76828621 880.52451268 385.31419945 880.53274822 C374.64473385 880.54605904 363.97533172 880.54321956 353.30586369 880.5345103 C344.63072396 880.52772336 335.95560197 880.5268214 327.28046036 880.53008175 C326.04375044 880.53054145 324.80704052 880.53100115 323.53285454 880.53147478 C321.02015324 880.532434 318.50745196 880.53340664 315.99475067 880.53439255 C293.12616962 880.54269535 270.2576172 880.53409814 247.38904226 880.51836476 C226.5418258 880.50413107 205.69466433 880.50540174 184.84744835 880.51974773 C161.39171409 880.53583506 137.93600607 880.54211312 114.48026651 880.53291094 C111.97672395 880.53195534 109.47318139 880.53101223 106.96963882 880.53008175 C105.73799363 880.52961892 104.50634844 880.5291561 103.23738067 880.52867924 C94.57795196 880.52609417 85.91854281 880.53044998 77.25911713 880.53752041 C66.6985197 880.54595396 56.13798913 880.54361639 45.57739932 880.52767818 C40.19414217 880.51982017 34.8109963 880.51666156 29.4277401 880.52662563 C24.49111229 880.53562449 19.55469795 880.5305549 14.61808925 880.51469298 C12.84101245 880.511367 11.06391728 880.51298945 9.28685249 880.52032034 C-15.56256144 880.61489419 -39.43340532 874.94097304 -57.94185829 857.12863445 C-57.94185829 856.46863445 -57.94185829 855.80863445 -57.94185829 855.12863445 C-58.60185829 855.12863445 -59.26185829 855.12863445 -59.94185829 855.12863445 C-59.94185829 854.46863445 -59.94185829 853.80863445 -59.94185829 853.12863445 C-60.60185829 853.12863445 -61.26185829 853.12863445 -61.94185829 853.12863445 C-63.48824566 851.29053506 -64.87560014 849.4641917 -66.25435829 847.50363445 C-66.68877235 846.89044353 -67.12318642 846.27725262 -67.57076454 845.64548016 C-73.34733869 837.31630117 -78.35354052 828.50636767 -83.42818642 819.73996258 C-85.12052646 816.82040305 -86.83103031 813.9120243 -88.54659462 811.00607586 C-92.00601193 805.14623149 -95.44360786 799.27352798 -98.88326454 793.40207195 C-99.96918116 791.54850936 -101.05510586 789.69495151 -102.14104652 787.84140301 C-102.88400945 786.57326849 -103.62694967 785.30512068 -104.36986732 784.03695965 C-109.10602906 775.95322597 -113.85619668 767.87809829 -118.62935829 759.81613445 C-123.59615073 751.42521303 -128.5202537 743.01011305 -133.4286747 734.58493328 C-138.10959876 726.55138588 -142.80271355 718.52506724 -147.50435829 710.50363445 C-147.86538643 709.88766399 -148.22641457 709.27169353 -148.59838295 708.6370573 C-153.25896326 700.68701641 -157.93513045 692.74636472 -162.62935829 684.81613445 C-167.59690087 676.42375961 -172.52239253 668.00757722 -177.43087196 659.58053875 C-182.08703137 651.58822225 -186.76142238 643.60674567 -191.44185829 635.62863445 C-196.70508064 626.65712537 -201.95668377 617.67905376 -207.19185829 608.69113445 C-212.03997931 600.36999832 -216.92129381 592.06929917 -221.82857704 583.78293133 C-226.09725886 576.57050878 -230.33624518 569.34099439 -234.56987953 562.10797405 C-241.45332934 550.33718269 -241.45332934 550.33718269 -248.44185829 538.62863445 C-258.05578228 522.68632166 -267.42183717 506.58546998 -276.69185829 490.44113445 C-277.15632362 489.63595379 -277.62078896 488.83077312 -278.09932899 488.00119305 C-291.55132429 464.46329512 -296.52707958 439.90893049 -289.43258095 413.45065594 C-286.38938529 403.33929323 -281.18224132 394.23973428 -275.94185829 385.12863445 C-275.53306435 384.41562176 -275.1242704 383.70260906 -274.70308876 382.96798992 C-272.73694641 379.55940882 -270.73608372 376.17303065 -268.71529579 372.7966032 C-265.34598025 367.15590851 -262.08861541 361.45125919 -258.81685829 355.75363445 C-252.91119924 345.48791168 -246.90881745 335.28315081 -240.85787392 325.10251141 C-234.73411179 314.79512259 -228.68813246 304.44360719 -222.65963173 294.08029461 C-219.75778287 289.09403072 -216.84948978 284.11152776 -213.94185829 279.12863445 C-210.47592617 273.1878621 -207.01047743 267.24681018 -203.54732704 261.3044157 C-196.83206077 249.78372953 -190.09903422 238.27362973 -183.35244179 226.77127361 C-176.76539477 215.54033441 -170.1993889 204.29723832 -163.64351845 193.04806805 C-160.74433803 188.07412265 -157.84297137 183.10145275 -154.94185829 178.12863445 C-153.77518151 176.12864035 -152.60851483 174.12864036 -151.44185829 172.12863445 C-149.10852496 168.12863445 -146.77519162 164.12863445 -144.44185829 160.12863445 C-143.86459999 159.13903728 -143.28734169 158.14944012 -142.69259071 157.12985516 C-141.5235231 155.12576254 -140.3544149 153.12169361 -139.18526649 151.11764812 C-136.30500434 146.1804565 -133.42540164 141.2428829 -130.54732704 136.3044157 C-118.18064699 115.08768069 -105.79242738 93.88281795 -93.26998329 72.7575407 C-91.14227184 69.16621776 -89.02672472 65.56807179 -86.92084694 61.96390057 C-85.50725601 59.54631504 -84.08906584 57.13144305 -82.67040443 54.71683025 C-81.66700113 53.00534123 -80.66942623 51.29043925 -79.6720829 49.5754118 C-67.00239442 28.04002482 -50.60817373 9.92217217 -25.6474247 3.26999187 C-17.08445192 1.1448232 -8.81123823 -0.02610516 0 0 Z M-60.7326625 268.69329864 C-61.13169711 269.49695946 -61.53073172 270.30062028 -61.94185829 271.12863445 C-62.5466703 272.10687176 -63.15148232 273.08510906 -63.77462196 274.09298992 C-73.96532984 292.43216472 -82.55558946 309.00217714 -77.12154579 330.5700407 C-72.36007829 344.93327545 -63.49678236 357.92644897 -55.85347939 370.87423992 C-52.59730208 376.41764267 -49.39685539 381.99303898 -46.19185829 387.56613445 C-41.75721234 395.26725925 -37.29827049 402.95195656 -32.77535439 410.60153484 C-29.07408117 416.87443281 -25.44727602 423.18954037 -21.81685829 429.50363445 C-15.94188354 439.71631877 -9.96691405 449.86551903 -3.94137001 459.98996258 C0.79247036 467.95714887 5.44255348 475.96761219 10.05814171 484.00363445 C15.89538182 494.16910197 15.89538182 494.16910197 21.87064171 504.25363445 C22.45458702 505.22558758 23.03853233 506.1975407 23.64017296 507.19894695 C24.10810265 507.83574383 24.57603233 508.4725407 25.05814171 509.12863445 C25.71814171 509.12863445 26.37814171 509.12863445 27.05814171 509.12863445 C28.33813259 507.2421821 29.51842654 505.28794716 30.65579796 503.3122282 C31.00895576 502.704118 31.36211357 502.0960078 31.72597313 501.46947002 C32.86457059 499.50566647 33.99287429 497.5361738 35.12064171 495.56613445 C36.21979721 493.66088303 37.32107235 491.75686878 38.42256737 489.85296917 C39.16834568 488.56378072 39.91337836 487.27416068 40.65770531 485.98413372 C44.33071428 479.62828581 48.11218603 473.33976198 51.90094566 467.0524931 C55.12709958 461.68895585 58.32566715 456.30887047 61.52518272 450.9294157 C62.3433742 449.55457905 63.16239397 448.18023501 63.98221397 446.80636883 C68.83971315 438.66537318 73.60586215 430.50134754 78.05814171 422.12863445 C77.17126671 421.15925945 76.28439171 420.18988445 75.37064171 419.19113445 C66.3625893 408.64979653 64.14569795 397.66147247 64.87161827 384.15695477 C65.79876135 374.0748805 71.87183085 365.23931161 78.93314171 358.2809782 C87.83208302 351.03204893 98.67043952 347.69166448 110.05814171 348.12863445 C123.39055313 349.67037806 133.53936421 354.26991167 142.18704796 364.62863445 C148.48815068 373.04764435 152.42128447 384.54534551 151.05814171 395.12863445 C149.69270172 403.94710104 147.18589289 410.82880637 142.05814171 418.12863445 C141.48064171 419.01550945 140.90314171 419.90238445 140.30814171 420.81613445 C133.70202808 427.60575124 125.47069768 432.58151318 116.05814171 434.12863445 C114.691175 433.99368771 113.32826602 433.81235023 111.97220421 433.5934782 C107.48250703 432.92035409 103.34408747 432.321458 99.05814171 434.12863445 C93.81903347 439.12860722 90.94297745 446.31479798 87.79056358 452.71896648 C85.05892046 458.09525282 81.97148424 463.25367338 78.88879967 468.43298626 C77.80096207 470.26573042 76.72266574 472.10376105 75.64725304 473.94382 C70.95614297 481.96627996 66.16871604 489.92575229 61.32465172 497.85663128 C60.25560721 499.61226862 59.19318833 501.37173159 58.13309288 503.13278484 C54.87754032 508.53557506 51.57752997 513.89176113 48.11282921 519.1637907 C46.94834073 521.00596941 45.7842526 522.84840129 44.62064171 524.69113445 C44.06336388 525.49293133 43.50608604 526.2947282 42.93192101 527.12082195 C41.43793067 529.54502307 40.51042255 531.3132873 40.05814171 534.12863445 C41.35686245 538.2577821 43.65144017 541.5604365 46.05814171 545.12863445 C47.1697606 547.03014361 48.26871932 548.93910937 49.35501671 550.85519695 C50.50411137 552.82248133 51.65520531 554.78859908 52.80814171 556.75363445 C54.04515537 558.86298923 55.28213433 560.97236435 56.51907921 563.08175945 C57.12074913 564.10720867 57.72241905 565.13265789 58.3423214 566.18918133 C59.87940985 568.82244043 61.39918258 571.46445325 62.90970421 574.11300945 C70.57966295 587.50967722 78.77683722 600.16122202 93.05814171 607.12863445 C98.21677224 598.82435044 103.25654767 590.46063204 108.18161583 582.01544476 C110.03956336 578.82992747 111.90285571 575.64753585 113.76517296 572.46457195 C114.13573814 571.83091213 114.50630333 571.19725231 114.88809776 570.54439068 C120.24484171 561.38614173 125.64861246 552.25577636 131.05814171 543.12863445 C131.40489952 542.54340008 131.75165733 541.9581657 132.10892296 541.35519695 C134.88221855 536.67465247 137.65702657 531.99500716 140.43314171 527.31613445 C140.84058617 526.62939648 141.24803062 525.9426585 141.66782188 525.23511028 C146.41028087 517.2440845 151.17182698 509.26535357 155.96829796 501.30661297 C162.1883477 490.98525919 168.28367162 480.60099673 174.28690147 470.15207195 C179.06919689 461.8304922 183.89238763 453.53395875 188.74564171 445.25363445 C189.10236961 444.64469341 189.45909752 444.03575237 189.82663536 443.40835857 C195.0049685 434.57316892 200.23525347 425.77027944 205.56863976 417.02756023 C206.0189254 416.2848991 206.46921104 415.54223797 206.93314171 414.77707195 C207.51708702 413.82066814 207.51708702 413.82066814 208.11282921 412.84494305 C209.20914189 410.97679239 209.20914189 410.97679239 210.05814171 408.12863445 C209.39814171 408.12863445 208.73814171 408.12863445 208.05814171 408.12863445 C207.77970421 407.56789227 207.50126671 407.00715008 207.21439171 406.4294157 C206.43515325 404.87883647 205.64317114 403.33460423 204.83939171 401.7966032 C204.41657921 400.97804852 203.99376671 400.15949383 203.55814171 399.31613445 C203.13532921 398.50531414 202.71251671 397.69449383 202.27689171 396.8591032 C197.79517692 386.81833834 197.48375282 375.19230755 200.62064171 364.69113445 C204.85107196 353.73654666 213.2739744 345.14010818 223.87064171 340.25363445 C233.98183005 335.9467531 246.55317048 335.13316572 257.12064171 338.69113445 C268.76733003 343.85540245 277.50093683 351.90855202 282.27689171 363.8278532 C286.28441393 375.63000614 285.80879096 386.96103522 280.56986046 398.33957195 C274.18017442 410.12829504 264.86884034 417.26213268 252.05814171 421.12863445 C244.94617809 422.32081332 238.14938702 422.38003069 231.05814171 421.12863445 C225.82628734 429.5792334 220.67745262 438.07179953 215.62064171 446.62863445 C214.92984796 447.79540786 214.23901017 448.9621552 213.54813194 450.12887859 C209.96142508 456.19043935 206.39084345 462.26119461 202.83939171 468.3434782 C201.43322726 470.75108027 200.02698845 473.15863886 198.62064171 475.56613445 C198.27171867 476.16364513 197.92279564 476.76115582 197.56329918 477.37677288 C191.80377232 487.23221395 185.90841124 496.99940887 179.95886803 506.74106121 C175.64917501 513.80173831 171.42265525 520.88867006 167.43143272 528.13473797 C164.10349488 534.14043539 160.54766964 540.00344703 156.99564171 545.87863445 C151.48823541 554.99429341 146.12842672 564.18041024 140.87064171 573.44113445 C127.06085011 597.75716295 127.06085011 597.75716295 119.6182003 609.37668133 C119.15881065 610.09404461 118.69942101 610.81140789 118.22611046 611.55050945 C117.80998497 612.19085125 117.39385948 612.83119305 116.96512413 613.49093914 C115.89664842 615.10822283 115.89664842 615.10822283 116.05814171 617.12863445 C121.00225172 618.38204816 125.94460047 618.38713061 131.01395226 618.51193523 C132.51251007 618.55311474 132.51251007 618.55311474 134.04134178 618.59512615 C143.23638707 618.83446108 152.43304061 618.97833033 161.63042545 619.09157276 C167.80408382 619.16911859 173.9734149 619.27914534 180.14481163 619.4660368 C186.12273285 619.64619432 192.09667653 619.74232681 198.07713318 619.78048611 C200.3497619 619.80928022 202.62222288 619.86762823 204.89329147 619.95661068 C216.61027419 620.84554341 216.61027419 620.84554341 226.96500015 616.48456669 C230.2199813 612.45276217 232.29278986 608.02796952 234.18149185 603.23181534 C235.48682906 600.10016564 237.21165049 597.35241665 239.00736046 594.4762907 C246.43198596 581.99491961 253.78466243 569.47866408 261.01004601 556.88083172 C264.62282704 550.58667 268.29818747 544.33607372 272.05814171 538.12863445 C271.55145958 537.4534074 271.04477745 536.77818035 270.52274132 536.08249187 C263.6115142 526.78238614 259.97455828 516.89044006 261.05814171 505.12863445 C263.10183567 493.33314097 267.79947237 482.56981427 277.56986046 475.24582195 C288.91860533 467.67999204 300.28514104 464.59454927 313.83939171 467.21457195 C324.08199654 470.12327284 334.44877603 475.39701564 340.04642296 484.7863493 C346.53218356 496.47136104 348.95987625 507.25336233 346.40970421 520.49582195 C342.73883467 532.57517898 335.85520055 540.70675742 325.05814171 547.12863445 C314.06558104 552.57753306 303.96715461 552.70814564 292.05814171 551.12863445 C281.7157331 568.00258817 271.5823342 584.9680606 261.76810265 602.1559782 C259.32730248 606.39915108 256.83910937 610.61423672 254.34769249 614.8278532 C252.97665426 616.8344347 252.97665426 616.8344347 253.05814171 618.12863445 C279.26697381 618.19883854 305.47579174 618.2516784 331.68469906 618.28407097 C343.85502905 618.29951381 356.02530048 618.32055381 368.19559288 618.35495281 C378.8081038 618.38493439 389.42057229 618.40422821 400.03312439 618.41089994 C405.64794256 618.41479738 411.26263939 618.42390277 416.87741852 618.44582462 C422.17233494 618.46632832 427.4670811 618.47244041 432.76203346 618.4679575 C434.69564873 618.46877653 436.62927025 618.47465884 438.56285095 618.48625088 C463.28152366 618.62705654 482.94723024 613.70425483 501.43314171 596.12863445 C507.14030941 590.21467557 507.14030941 590.21467557 511.05814171 583.12863445 C509.93311079 579.00053151 508.29125974 575.49042013 506.14407921 571.8044157 C505.55618614 570.78976238 504.96829308 569.77510906 504.36258507 568.72970867 C503.72586876 567.64447918 503.08915245 566.55924969 502.43314171 565.44113445 C501.76163128 564.28786549 501.09049603 563.134378 500.41971397 561.98068523 C494.99107987 552.65989998 489.48944806 543.38175328 483.97830772 534.10959148 C479.57387724 526.69865613 475.2066208 519.26731237 470.87064171 511.81613445 C466.52121328 504.34246011 462.15114328 496.88190105 457.74564171 489.44113445 C452.59759264 480.7462263 447.47831908 472.03479172 442.37064171 463.31613445 C441.62943433 462.05107703 440.88822342 460.78602168 440.1470089 459.52096844 C439.07650791 457.69385033 438.00602379 455.86672234 436.93558311 454.0395689 C430.77795234 443.52926103 424.59688854 433.03355828 418.38016319 422.55807781 C410.78865168 409.7649626 403.25600396 396.9389641 395.77591515 384.08029461 C392.87406626 379.09403068 389.96574835 374.11154229 387.05814171 369.12863445 C385.89144469 367.12865216 384.72477801 365.12865217 383.55814171 363.12863445 C382.69189171 361.64363445 382.69189171 361.64363445 381.80814171 360.12863445 C376.55814171 351.12863445 376.55814171 351.12863445 374.80765343 348.12765789 C373.64277633 346.13081861 372.47773766 344.13407356 371.31253624 342.13742352 C368.3671467 337.08983115 365.4247199 332.04055215 362.48782921 326.98800945 C359.58013543 321.98734957 356.66390984 316.99177269 353.73978233 312.00070477 C352.62702481 310.10022866 351.51631497 308.19855198 350.40775108 306.29562664 C338.49717493 285.88058226 326.83748645 269.77079736 303.06800497 262.78050673 C297.24815117 261.52005035 291.35464652 261.67010426 285.42552757 261.66261578 C283.95757072 261.64999705 282.48962428 261.63611682 281.02169007 261.62109309 C277.01025185 261.5838301 272.99891055 261.56492955 268.98733747 261.54930413 C264.65256517 261.52928853 260.31792919 261.49240122 255.98325157 261.45801067 C245.5328026 261.37889365 235.08228675 261.32791774 224.63165811 261.27950332 C219.7068694 261.25596251 214.78209918 261.2290887 209.85732651 261.20243549 C193.48518075 261.1147932 177.11302695 261.03342316 160.74075603 260.97296715 C159.69436618 260.96908928 158.64797633 260.9652114 157.5698777 260.96121602 C156.52104038 260.95733078 155.47220306 260.95344554 154.39158279 260.94944257 C152.26635694 260.94155834 150.14113114 260.93366199 148.01590538 260.92575359 C146.96172832 260.92183638 145.90755127 260.91791916 144.82142945 260.91388325 C127.7192833 260.84914753 110.61771882 260.74033625 93.51593635 260.61289456 C75.94963447 260.48265166 58.38345806 260.38996528 40.8167569 260.33477145 C30.95654987 260.30289183 21.09701676 260.25468799 11.2371521 260.16483402 C2.84706742 260.08852899 -5.54230971 260.04634931 -13.93275651 260.0489113 C-18.21376873 260.04918441 -22.49309841 260.03319665 -26.77373123 259.97358036 C-30.69310463 259.91938246 -34.60975318 259.91148024 -38.52936981 259.94035146 C-39.94649328 259.94265624 -41.36376712 259.92802959 -42.78050097 259.89472111 C-51.79611498 259.69446091 -56.15306094 260.60250467 -60.7326625 268.69329864 Z " fill="#A3D6A6" transform="translate(295.941858291626,51.871365547180176)"/>
<path d="M0 0 C1 2 1 2 1 5 C1.62599617 6.68236471 2.28752268 8.3523962 3 10 C3.66 8.68 4.32 7.36 5 6 C6.65 6 8.3 6 10 6 C10.90983282 8.72949845 11 10.22134249 11 13 C12.98 13.66 14.96 14.32 17 15 C16.67 15.66 16.34 16.32 16 17 C17.65 17.99 19.3 18.98 21 20 C21.33 19.34 21.66 18.68 22 18 C23.65 18.33 25.3 18.66 27 19 C27 18.01 27 17.02 27 16 C26.34 16 25.68 16 25 16 C27 10 27 10 29 8 C28.01 7.01 28.01 7.01 27 6 C28.625 4.875 28.625 4.875 31 4 C34.25 4.875 34.25 4.875 37 6 C36.34 6.66 35.68 7.32 35 8 C34.83318891 11.08347826 34.83318891 11.08347826 35 14 C34.01 13.34 33.02 12.68 32 12 C32.33 12.99 32.66 13.98 33 15 C33.99 15.495 33.99 15.495 35 16 C35 16.66 35 17.32 35 18 C37.17450593 17.07536905 37.17450593 17.07536905 38.8125 14.875 C41 13 41 13 43.625 13.1875 C46 14 46 14 48 15 C48 15.66 48 16.32 48 17 C48.66 17.33 49.32 17.66 50 18 C50 19.32 50 20.64 50 22 C49.34 22 48.68 22 48 22 C48.49756092 24.75641416 48.49756092 24.75641416 50 27 C50.66 26.34 51.32 25.68 52 25 C52.99 25 53.98 25 55 25 C55 23.35 55 21.7 55 20 C55.66 20 56.32 20 57 20 C57.99 21.98 57.99 21.98 59 24 C58.34 24.66 57.68 25.32 57 26 C59.31 27.32 61.62 28.64 64 30 C64.33 29.34 64.66 28.68 65 28 C65.99 28.33 66.98 28.66 68 29 C68 29.66 68 30.32 68 31 C72.02739207 32.74898845 72.02739207 32.74898845 76.25 32.375 C78.27535377 30.78365061 79.05104075 29.37239812 80 27 C80.598125 27.226875 81.19625 27.45375 81.8125 27.6875 C82.534375 27.790625 83.25625 27.89375 84 28 C85.64594139 26.60411246 85.64594139 26.60411246 87 25 C87.66 25 88.32 25 89 25 C88.835 25.763125 88.67 26.52625 88.5 27.3125 C87.90854604 30.03596236 87.90854604 30.03596236 88 33 C87.34 33.99 86.68 34.98 86 36 C87.32 36.99 88.64 37.98 90 39 C89.67 39.33 89.34 39.66 89 40 C90.32 40.66 91.64 41.32 93 42 C93 42.99 93 43.98 93 45 C92.34 45 91.68 45 91 45 C90.67 45.66 90.34 46.32 90 47 C90.33 47.99 90.66 48.98 91 50 C91.99 49.67 92.98 49.34 94 49 C94.33 49.66 94.66 50.32 95 51 C95.66 50.67 96.32 50.34 97 50 C97.33 50.66 97.66 51.32 98 52 C99.94603274 52.59070014 99.94603274 52.59070014 102 53 C102.66 53.33 103.32 53.66 104 54 C104 54.66 104 55.32 104 56 C104.99 55.67 105.98 55.34 107 55 C107.86130784 64.24196987 107.15802595 70.32121792 101.921875 78.0859375 C100.44710882 80.32206671 99.27046539 82.38674156 98.109375 84.77734375 C95.84441944 89.41886138 93.19147251 93.78347242 90.5 98.1875 C84.67582125 107.80689868 79.07062622 117.53908775 73.52197266 127.31933594 C71.43502304 130.99509897 69.34042711 134.66646932 67.24414062 138.33691406 C66.21711275 140.1351793 65.19104994 141.9339961 64.16601562 143.73339844 C62.08336456 147.38427743 59.99685066 151.02991249 57.83203125 154.6328125 C47.37043234 172.07624607 43.98374033 189.68602293 48.89453125 209.62890625 C51.92120817 218.85866662 56.8701736 226.86651582 62.07714844 234.98120117 C65.46148541 240.29447271 68.73049312 245.67808593 72 251.0625 C72.36516724 251.66305206 72.73033447 252.26360413 73.10656738 252.88235474 C79.09186245 262.73491937 84.88679174 272.68372801 90.61083984 282.69067383 C94.99579258 290.33020221 99.55397685 297.84104797 104.2253418 305.30810547 C108.66568656 312.41729026 112.94762525 319.61200743 117.19360352 326.83862305 C120.77729629 332.93754825 124.40620647 339.00687575 128.0625 345.0625 C132.02508744 351.63928548 135.89460983 358.26147476 139.6875 364.9375 C150.25945768 383.5439345 161.1260198 401.98336846 172.18139648 420.30639648 C175.77394305 426.26584188 179.32572763 432.24635046 182.84375 438.25 C184.10746444 440.40032203 185.37169593 442.55033932 186.63604736 444.70028687 C187.44656029 446.08207983 188.25456686 447.46534678 189.05975342 448.85025024 C202.0436214 471.17785751 216.35487296 487.12266866 241.99003829 494.51162834 C247.40114943 495.82639633 252.90916946 495.67307225 258.44096375 495.61473083 C259.82717253 495.61835505 261.21337698 495.62417077 262.59956867 495.63195282 C266.36228771 495.64684386 270.12431341 495.63103192 273.88697731 495.6096462 C277.96266132 495.59202128 282.0382828 495.60355957 286.11398315 495.61131287 C294.07905881 495.62194007 302.04386824 495.60610955 310.00890335 495.5811746 C319.29646564 495.55313524 328.58397525 495.55190124 337.87157283 495.55173159 C354.44772308 495.55054639 371.02375171 495.52563553 387.59985352 495.48706055 C403.66367044 495.44970224 419.72739897 495.42846337 435.79125977 495.42553711 C437.27613651 495.42526289 437.27613651 495.42526289 438.79101076 495.42498314 C440.27338973 495.42471468 440.27338973 495.42471468 441.78571576 495.4244408 C443.77576967 495.42407537 445.76582358 495.42370299 447.75587749 495.42332363 C448.73744038 495.42313812 449.71900327 495.4229526 450.73031048 495.42276147 C466.07089744 495.41918664 481.41147087 495.40073463 496.75204402 495.38083039 C502.30035343 495.37382326 507.84865963 495.36903171 513.3969725 495.36586904 C522.19719971 495.36080842 530.9973657 495.34931358 539.79756149 495.32456874 C543.81527023 495.3133901 547.83291931 495.30522989 551.85064507 495.30570221 C555.53492572 495.30601269 559.21906563 495.29697129 562.90330944 495.28073419 C564.85318357 495.27443508 566.80308158 495.27773059 568.75296229 495.2814731 C579.14210439 495.21934827 589.04691236 494.61164999 598.3125 489.625 C598.90442139 489.30974365 599.49634277 488.9944873 600.10620117 488.66967773 C601.74438638 487.79258727 603.37266794 486.8970668 605 486 C605.70125 485.64808594 606.4025 485.29617188 607.125 484.93359375 C620.42262124 478.06931241 627.42320997 465.30221847 634.53686523 452.80102539 C634.94235596 452.09453857 635.34784668 451.38805176 635.765625 450.66015625 C636.12430664 450.02730713 636.48298828 449.39445801 636.85253906 448.74243164 C638 447 638 447 639.57714844 445.45874023 C641.26060904 443.9449065 641.26060904 443.9449065 642 441 C642.66 441.33 643.32 441.66 644 442 C644 442.99 644 443.98 644 445 C646.26014889 444.15773072 646.26014889 444.15773072 646.875 441.5625 C648 439 648 439 650.125 437.6875 C650.74375 437.460625 651.3625 437.23375 652 437 C652.47050781 437.3609375 652.94101562 437.721875 653.42578125 438.09375 C654.04839844 438.5578125 654.67101562 439.021875 655.3125 439.5 C656.23482422 440.19609375 656.23482422 440.19609375 657.17578125 440.90625 C659.07433005 442.25711283 659.07433005 442.25711283 662 442 C661.67 441.01 661.34 440.02 661 439 C661.66 438.34 662.32 437.68 663 437 C663.66 437 664.32 437 665 437 C665.66 436.34 666.32 435.68 667 435 C667 435.66 667 436.32 667 437 C667.66 437.33 668.32 437.66 669 438 C668.01 438.66 667.02 439.32 666 440 C666.99 440.66 667.98 441.32 669 442 C669.20625 441.38125 669.4125 440.7625 669.625 440.125 C671.53706717 437.1699871 673.72780688 437.04431695 677 436 C677.33 435.01 677.66 434.02 678 433 C678.33 432.01 678.66 431.02 679 430 C680.093125 430.185625 681.18625 430.37125 682.3125 430.5625 C685.93624133 431.2578068 685.93624133 431.2578068 689 430 C688.67 429.34 688.34 428.68 688 428 C687.34 428.66 686.68 429.32 686 430 C686.375 427.5625 686.375 427.5625 687 425 C687.66 424.67 688.32 424.34 689 424 C691.125 424.9375 691.125 424.9375 693 426 C693.66 425.34 694.32 424.68 695 424 C695 424.66 695 425.32 695 426 C695.66 425.67 696.32 425.34 697 425 C696.443125 424.29875 695.88625 423.5975 695.3125 422.875 C694.6628125 421.451875 694.6628125 421.451875 694 420 C695.3125 416.6875 695.3125 416.6875 697 414 C698.5 415.375 698.5 415.375 700 417 C700 417.66 700 418.32 700 419 C701.216875 418.814375 702.43375 418.62875 703.6875 418.4375 C706.40039035 418.07865207 708.04197456 418.00953967 710.75 418.625 C713.12476326 419.27531251 713.12476326 419.27531251 715.3125 417.5625 C715.869375 417.046875 716.42625 416.53125 717 416 C717.33 416.99 717.66 417.98 718 419 C721.40320742 417.98823563 722.75725331 417.35156418 724.8125 414.375 C725.4003125 413.199375 725.4003125 413.199375 726 412 C727.3303125 412.309375 727.3303125 412.309375 728.6875 412.625 C732.2252711 413.02550239 733.86632967 412.56683516 737 411 C737 410.34 737 409.68 737 409 C741.47644365 405.71727466 744.37979802 404 750 404 C751.34164079 404.2981424 752.67851173 404.62243192 754 405 C753.01 405.495 753.01 405.495 752 406 C752.66 408.97 753.32 411.94 754 415 C757.89459074 413.31622777 757.89459074 413.31622777 760 411 C760.83144531 411.433125 760.83144531 411.433125 761.6796875 411.875 C762.76636719 412.431875 762.76636719 412.431875 763.875 413 C764.59429688 413.37125 765.31359375 413.7425 766.0546875 414.125 C767.94848977 415.13673746 767.94848977 415.13673746 770 415 C770.33 414.34 770.66 413.68 771 413 C771.7425 412.608125 772.485 412.21625 773.25 411.8125 C776.9134973 409.39792224 778.58913291 406.65074159 781 403 C781.33 403.66 781.66 404.32 782 405 C785.02934491 405.65772428 785.02934491 405.65772428 788 406 C787.67 404.68 787.34 403.36 787 402 C794.05762987 400.47402597 794.05762987 400.47402597 797.6875 402.5 C798.450625 402.995 799.21375 403.49 800 404 C800.33 403.34 800.66 402.68 801 402 C801.33 402.66 801.66 403.32 802 404 C802.66 403.67 803.32 403.34 804 403 C803.34 400.69 802.68 398.38 802 396 C802.99 396.66 803.98 397.32 805 398 C807.10232344 395.1315587 807.10232344 395.1315587 808 392 C809.33333333 391.66666667 810.66666667 391.33333333 812 391 C812.33 390.01 812.66 389.02 813 388 C813.66 388 814.32 388 815 388 C815 386.68 815 385.36 815 384 C815.66 384 816.32 384 817 384 C817.27585937 383.42765625 817.55171875 382.8553125 817.8359375 382.265625 C818.99467848 380.01035733 820.26875706 377.89143622 821.625 375.75 C822.07101562 375.04359375 822.51703125 374.3371875 822.9765625 373.609375 C823.31429687 373.07828125 823.65203125 372.5471875 824 372 C825.13476562 373.72753906 825.13476562 373.72753906 826 376 C825.25585938 378.09277344 825.25585938 378.09277344 823.84375 380.359375 C823.32321045 381.21490967 822.8026709 382.07044434 822.26635742 382.9519043 C821.68345947 383.87527588 821.10056152 384.79864746 820.5 385.75 C819.2762831 387.75065371 818.05366299 389.75197862 816.83203125 391.75390625 C816.19475098 392.78789551 815.5574707 393.82188477 814.90087891 394.88720703 C811.91644491 399.7743806 809.05537334 404.73135336 806.1875 409.6875 C801.16777221 418.31726745 796.09748311 426.91595854 791 435.5 C784.6697003 446.16039259 778.40137133 456.8553026 772.1640625 467.5703125 C769.06938384 472.88576952 765.95275527 478.18800982 762.82885742 483.48632812 C759.79551582 488.6359115 756.7850332 493.79859392 753.77807617 498.96362305 C749.12227885 506.96042893 744.45707278 514.94748811 739.67236328 522.86791992 C735.66326703 529.52482154 731.7408025 536.232749 727.8125 542.9375 C727.26144089 543.87783081 727.26144089 543.87783081 726.69924927 544.8371582 C722.24323316 552.44252166 717.80174757 560.05612198 713.37524414 567.67871094 C711.11550013 571.56336503 708.84327609 575.44062221 706.56835938 579.31640625 C705.06953473 581.88102028 703.589066 584.45556718 702.109375 587.03125 C689.58505621 608.55022631 672.38513787 623.92690592 648 630.875 C641.4379724 632.53653904 634.94212205 633.1486075 628.18677616 633.13142776 C627.42710138 633.1334804 626.66742661 633.13553303 625.88473138 633.13764787 C623.34249509 633.14329639 620.80031334 633.14186328 618.2580719 633.14044189 C616.4155224 633.14302677 614.57297346 633.14604027 612.7304253 633.1494453 C607.66922269 633.15750432 602.60803427 633.15930426 597.546826 633.16004276 C592.08714711 633.16189526 586.62747555 633.16944365 581.1678009 633.17617798 C569.22950633 633.18975463 557.29121511 633.19578515 545.35291409 633.20018864 C537.89572087 633.20295252 530.43852894 633.20719018 522.98133659 633.21169281 C502.32697029 633.22388524 481.67260503 633.23418419 461.01823521 633.2375679 C459.68316551 633.23778953 458.34809581 633.23801132 457.01302611 633.23823325 C455.67479112 633.23845389 454.33655612 633.23867437 452.99832112 633.2388947 C450.31374077 633.23933724 447.62916042 633.23978436 444.94458008 633.24023438 C443.94615431 633.24039846 443.94615431 633.24039846 442.92755833 633.24056586 C421.35735001 633.24419442 399.78717535 633.26010731 378.21697991 633.28342474 C355.39381494 633.30805136 332.57066645 633.32173537 309.74748749 633.32293582 C297.31347209 633.32385161 284.87950075 633.32957955 272.44549751 633.34775543 C261.85543655 633.36318145 251.26543326 633.36826216 240.67536319 633.36001733 C235.27595345 633.35611953 229.87665975 633.35699781 224.4772644 633.37107468 C219.52552396 633.3838659 214.57398615 633.38257047 209.62224578 633.37048396 C207.83954224 633.36853596 206.05682408 633.37156347 204.27414102 633.38032833 C179.4065022 633.49476362 155.52330608 627.82663306 137 610 C137 609.34 137 608.68 137 608 C136.34 608 135.68 608 135 608 C135 607.34 135 606.68 135 606 C134.34 606 133.68 606 133 606 C131.45361263 604.16190061 130.06625816 602.33555724 128.6875 600.375 C128.25308594 599.76180908 127.81867188 599.14861816 127.37109375 598.5168457 C121.5945196 590.18766672 116.58831777 581.37773321 111.51367188 572.61132812 C109.82133184 569.6917686 108.11082798 566.78338985 106.39526367 563.87744141 C102.93584636 558.01759704 99.49825043 552.14489353 96.05859375 546.2734375 C94.97267713 544.41987491 93.88675243 542.56631706 92.80081177 540.71276855 C92.05784885 539.44463404 91.31490862 538.17648623 90.57199097 536.9083252 C85.83582923 528.82459152 81.08566161 520.74946384 76.3125 512.6875 C71.34570756 504.29657858 66.4216046 495.8814786 61.51318359 487.45629883 C56.83225953 479.42275143 52.13914474 471.39643279 47.4375 463.375 C47.07647186 462.75902954 46.71544373 462.14305908 46.34347534 461.50842285 C41.68289503 453.55838196 37.00672784 445.61773027 32.3125 437.6875 C27.34495742 429.29512515 22.41946577 420.87894277 17.51098633 412.4519043 C12.85482692 404.4595878 8.18043591 396.47811122 3.5 388.5 C-1.76322235 379.52849092 -7.01482548 370.55041931 -12.25 361.5625 C-17.09812102 353.24136387 -21.97943551 344.94066472 -26.88671875 336.65429688 C-31.15540057 329.44187433 -35.39438689 322.21235993 -39.62802124 314.9793396 C-46.51147104 303.20854824 -46.51147104 303.20854824 -53.5 291.5 C-63.11392399 275.55768721 -72.47997887 259.45683553 -81.75 243.3125 C-82.21446533 242.50731934 -82.67893066 241.70213867 -83.1574707 240.87255859 C-96.609466 217.33466066 -101.58522129 192.78029604 -94.49072266 166.32202148 C-91.44752699 156.21065878 -86.24038303 147.11109983 -81 138 C-80.59120605 137.2869873 -80.18241211 136.57397461 -79.76123047 135.83935547 C-77.79508811 132.43077437 -75.79422543 129.04439619 -73.7734375 125.66796875 C-70.40412195 120.02727406 -67.14675712 114.32262474 -63.875 108.625 C-57.96934094 98.35927723 -51.96695915 88.15451636 -45.91601562 77.97387695 C-38.60996378 65.67648272 -31.41430784 53.3155313 -24.2265625 40.94873047 C-16.25488957 27.23545141 -8.20448728 13.57544259 0 0 Z M8 12 C9 14 9 14 9 14 Z M32 17 C32.33 17.99 32.66 18.98 33 20 C33.66 19.34 34.32 18.68 35 18 C34.01 17.67 33.02 17.34 32 17 Z M102 55 C102 55.66 102 56.32 102 57 C102.66 56.67 103.32 56.34 104 56 C103.34 55.67 102.68 55.34 102 55 Z M745 406 C745 406.99 745 407.98 745 409 C745.66 409 746.32 409 747 409 C746.67 408.01 746.34 407.02 746 406 C745.67 406 745.34 406 745 406 Z M666 442 C667 444 667 444 667 444 Z " fill="#89C1B7" transform="translate(101,299)"/>
<path d="M0 0 C1.84450994 -0.00701996 1.84450994 -0.00701996 3.72628272 -0.01418173 C7.10000612 -0.02399638 10.47322021 -0.02057467 13.84691143 -0.01122308 C17.50073587 -0.00438509 21.15451846 -0.01493724 24.80833435 -0.02316284 C31.95111371 -0.03645291 39.09379811 -0.03364339 46.23658107 -0.02492492 C52.0466001 -0.01812902 57.85659266 -0.01723987 63.66661453 -0.02049637 C64.91055181 -0.02118592 64.91055181 -0.02118592 66.17961914 -0.0218894 C67.86473024 -0.02284865 69.54984132 -0.02382129 71.23495241 -0.02480717 C87.01062837 -0.0333475 102.78625192 -0.02354884 118.56191929 -0.00740607 C132.0719556 0.0059909 145.58191455 0.0036715 159.09194946 -0.01016235 C174.81096977 -0.02625079 190.52994419 -0.03251844 206.24897158 -0.02332556 C207.92823513 -0.02237 209.60749868 -0.02142689 211.28676224 -0.02049637 C212.52583974 -0.01980213 212.52583974 -0.01980213 213.78994911 -0.01909386 C219.58595367 -0.01651338 225.38192891 -0.02085468 231.17792892 -0.02793503 C238.25157703 -0.03638681 245.32512539 -0.03399335 252.39876221 -0.0180928 C256.00169068 -0.01025844 259.6044534 -0.00703475 263.20738029 -0.01704025 C288.5988012 -0.08157628 310.20029835 1.21279975 329.59487915 19.59188843 C333.32128169 23.38939974 335.91947644 27.52997377 338.54800415 32.13095093 C339.59485415 33.91872598 340.64173056 35.70648558 341.68862915 37.49423218 C342.51717407 38.92243286 342.51717407 38.92243286 343.36245728 40.37948608 C345.81404064 44.5889506 348.30843058 48.772536 350.79971313 52.95858765 C359.36717761 67.36365132 367.83320861 81.82827138 376.30093384 96.29208374 C378.56574019 100.15802141 380.83665417 104.02032771 383.11050415 107.88095093 C386.05762144 112.88467127 388.99689138 117.89291919 391.93081665 122.90438843 C393.36562097 125.35496285 394.8005307 127.80547554 396.23550415 130.25595093 C396.78147247 131.1883812 396.78147247 131.1883812 397.33847046 132.13964844 C402.60652205 141.1345308 407.90933438 150.10783051 413.23550415 159.06845093 C419.19910806 169.10576357 425.06864911 179.19391987 430.88833618 189.3152771 C434.26588905 195.1885609 437.66223404 201.04891436 441.11050415 206.88095093 C445.24332748 213.87342417 449.30664248 220.90494003 453.36050415 227.94345093 C461.99040303 242.9239592 470.68968692 257.86326023 479.4503479 272.76766968 C483.68116291 279.96582346 487.90270145 287.16931861 492.11050415 294.38095093 C492.88394165 295.70618774 492.88394165 295.70618774 493.67300415 297.05819702 C503.54806158 314.04848581 509.28688277 329.56430593 505.17300415 349.44345093 C500.87957074 363.87962839 491.42283325 377.12921346 483.8565979 389.99423218 C480.04673134 396.47509767 476.29537974 402.98881808 472.54800415 409.50595093 C467.70013159 417.91767517 462.83684362 426.32006072 457.92300415 434.69345093 C457.13010986 436.05397583 457.13010986 436.05397583 456.32119751 437.44198608 C453.8283013 441.67331211 451.33389827 445.64981454 448.11050415 449.38095093 C447.85059692 448.90077515 447.5906897 448.42059937 447.32290649 447.9258728 C440.14421662 434.69492813 432.67512463 421.65381186 425.04653931 408.67782593 C423.01442402 405.21733604 420.98946664 401.7527351 418.9659729 398.28720093 C411.57671387 385.63894261 404.1232612 373.03390537 396.56607056 360.48495483 C390.56829918 350.51097168 384.70623071 340.46007492 378.86196899 330.39559937 C375.86745724 325.24139932 372.86400084 320.0924188 369.86050415 314.94345093 C369.27043579 313.931698 368.68036743 312.91994507 368.07241821 311.87753296 C364.44165133 305.6546717 360.79943652 299.4387541 357.14199829 293.23153687 C354.47962654 288.71195685 351.82425211 284.18831438 349.17300415 279.66220093 C348.82045563 279.0603598 348.4679071 278.45851868 348.10467529 277.83843994 C347.37388764 276.59087326 346.6431036 275.34330446 345.912323 274.09573364 C340.4335485 264.74277507 334.94534103 255.39578653 329.42300415 246.06845093 C325.04205726 238.6672596 320.69029705 231.24968334 316.36050415 223.81845093 C309.3810058 211.83963399 302.38594399 199.87012388 295.36065674 187.91810608 C293.1706895 184.19104132 290.98849692 180.45955204 288.81170654 176.72477722 C287.38228819 174.27504495 285.94750952 171.82848045 284.51156616 169.38256836 C283.5201814 167.69014937 282.53519487 165.99398744 281.55044556 164.29769897 C271.50650316 147.22670023 259.5164881 135.73195336 240.12242317 130.02912283 C234.28906497 128.77377073 228.38460006 128.9560431 222.44424438 128.97549438 C220.97272926 128.96933023 219.50121912 128.96186299 218.02971649 128.95321441 C214.00856737 128.93333191 209.98759474 128.93186842 205.96640468 128.93355203 C201.62154507 128.93211366 197.27675434 128.91345004 192.93193054 128.8969574 C184.43154162 128.86738432 175.93119702 128.85357159 167.43076378 128.84505495 C157.53463417 128.83451095 147.63856675 128.80797899 137.74247146 128.78071091 C120.0928656 128.73259128 102.44326074 128.69846394 84.79360962 128.67245483 C67.65718593 128.64718551 50.52081378 128.61281867 33.38442993 128.56796265 C32.32780454 128.56519842 31.27117915 128.56243419 30.18253481 128.5595862 C28.05401196 128.55401183 25.92548911 128.54843705 23.79696625 128.54286186 C22.74705012 128.54011382 21.69713399 128.53736577 20.61540222 128.53453445 C19.04456398 128.5304187 19.04456398 128.5304187 17.44199163 128.5262198 C1.11859528 128.48378362 -15.20481853 128.44903106 -31.5282349 128.41531934 C-37.44952267 128.40302061 -43.37080714 128.38970246 -49.29209107 128.37567911 C-58.67735679 128.3535201 -68.06261622 128.33468971 -77.44790095 128.32274017 C-81.73774257 128.31722533 -86.02756575 128.31013218 -90.31739616 128.29874611 C-94.23876784 128.28840358 -98.16011725 128.2826769 -102.08150184 128.28075799 C-103.50518897 128.27925018 -104.92887545 128.27602946 -106.35255444 128.27098623 C-108.27741502 128.2644281 -110.20229507 128.26458268 -112.12716675 128.26514053 C-113.19939232 128.26334927 -114.27161789 128.261558 -115.37633514 128.25971246 C-117.88666538 128.21137078 -117.88666538 128.21137078 -119.88949585 129.38095093 C-118.52940819 125.66071117 -116.8250538 122.55397757 -114.63949585 119.25595093 C-112.30520463 115.65146017 -110.10286134 112.04218386 -108.07699585 108.25595093 C-104.36617247 101.33233572 -100.34977967 94.59620135 -96.34603882 87.83944702 C-94.24658643 84.29578535 -92.15194666 80.7492851 -90.05697632 77.20297241 C-88.94322303 75.31807134 -87.82896324 73.43346947 -86.71420288 71.54916382 C-83.77203293 66.57487619 -80.8422055 61.59381378 -77.92880249 56.60263062 C-75.9301357 53.18679969 -73.91132794 49.78310395 -71.88949585 46.38095093 C-71.48666382 45.69807007 -71.08383179 45.01518921 -70.66879272 44.31161499 C-58.87755457 24.41974017 -46.07405245 9.14753577 -22.91295469 2.5305742 C-15.16329175 0.62971601 -7.96250774 -0.04744682 0 0 Z " fill="#5D9896" transform="translate(358.8894958496094,185.61904907226563)"/>
<path d="M0 0 C12.87734184 7.052373 20.72833689 15.72298822 25.203125 29.79296875 C27.99365838 41.17686653 25.93991716 52.1243503 20.41796875 62.32421875 C13.8003993 72.87611431 4.35713061 79.81270056 -7.58203125 83.32421875 C-14.79890126 84.52703042 -21.38441971 84.33686972 -28.58203125 83.32421875 C-29.01845947 84.07179443 -29.4548877 84.81937012 -29.90454102 85.58959961 C-37.60443017 98.77144774 -45.32036433 111.94039623 -53.20703125 125.01171875 C-58.98071196 134.58552556 -64.59848202 144.24124007 -70.1640625 153.93725586 C-74.89306589 162.16395832 -79.73927684 170.31269854 -84.640625 178.4375 C-97.762348 200.19619573 -110.51615606 222.18418561 -123.30175781 244.1418457 C-128.99143464 253.91307759 -134.7304119 263.64902472 -140.58203125 273.32421875 C-141.58269255 274.99048846 -142.58294115 276.65700648 -143.58203125 278.32421875 C-152.64007796 277.30153606 -159.64594972 273.5427273 -167.58203125 269.32421875 C-162.25076592 259.95244359 -156.8555927 250.62099218 -151.39453125 241.32421875 C-150.64434832 240.04599165 -149.89418594 238.7677525 -149.14404297 237.48950195 C-142.64632485 226.42081818 -136.12608757 215.36557335 -129.58203125 204.32421875 C-129.06189453 203.44636719 -129.06189453 203.44636719 -128.53125 202.55078125 C-125.75795441 197.87023676 -122.98314639 193.19059146 -120.20703125 188.51171875 C-119.79958679 187.82498077 -119.39214233 187.1382428 -118.97235107 186.43069458 C-114.22989209 178.4396688 -109.46834598 170.46093787 -104.671875 162.50219727 C-98.45182526 152.18084349 -92.35650134 141.79658102 -86.35327148 131.34765625 C-57.75214521 81.57938969 -57.75214521 81.57938969 -49.58203125 69.32421875 C-50.24203125 69.32421875 -50.90203125 69.32421875 -51.58203125 69.32421875 C-60.57989861 57.91969289 -62.80762455 46.48817772 -61.58203125 32.32421875 C-59.18184716 19.96612802 -51.65687579 10.61815194 -41.58203125 3.32421875 C-29.01589813 -3.46418828 -13.50832664 -5.96879549 0 0 Z " fill="#5E9996" transform="translate(555.58203125,390.67578125)"/>
<path d="M0 0 C8.33731211 8.93722941 12.02024048 18.65783754 13.1796875 30.83203125 C12.67452324 40.95636505 9.65153632 49.67895906 3.8046875 57.89453125 C3.0621875 58.94640625 2.3196875 59.99828125 1.5546875 61.08203125 C-7.27906425 70.11655008 -17.43720822 75.01235082 -30.09741211 75.16040039 C-33.46805945 75.13761864 -36.8275974 75.03817787 -40.1953125 74.89453125 C-40.659375 75.73628906 -41.1234375 76.57804687 -41.6015625 77.4453125 C-47.13782502 87.41693903 -52.92044881 97.23508391 -58.75024414 107.03735352 C-63.91288972 115.71937923 -69.0326356 124.42567763 -74.1328125 133.14453125 C-79.14971535 141.71900145 -84.18407168 150.28071144 -89.33203125 158.77734375 C-90.65445356 160.98969806 -91.94779674 163.20578226 -93.21484375 165.44921875 C-94.16423828 167.12371094 -94.16423828 167.12371094 -95.1328125 168.83203125 C-95.67808594 169.81042969 -96.22335937 170.78882813 -96.78515625 171.796875 C-97.48318359 172.83521484 -97.48318359 172.83521484 -98.1953125 173.89453125 C-98.8553125 173.89453125 -99.5153125 173.89453125 -100.1953125 173.89453125 C-102.15542051 170.47887978 -104.11308824 167.06183584 -106.0703125 163.64453125 C-106.90369141 162.19240234 -106.90369141 162.19240234 -107.75390625 160.7109375 C-108.28886719 159.77636719 -108.82382812 158.84179688 -109.375 157.87890625 C-109.86726074 157.02006836 -110.35952148 156.16123047 -110.86669922 155.27636719 C-112.03913011 153.17452306 -113.14026499 151.05715975 -114.1953125 148.89453125 C-113.5353125 148.89453125 -112.8753125 148.89453125 -112.1953125 148.89453125 C-111.93516357 148.19231445 -111.67501465 147.49009766 -111.40698242 146.76660156 C-110.09313999 143.65234761 -108.52365512 140.85416164 -106.80859375 137.94140625 C-106.30829147 137.08888779 -106.30829147 137.08888779 -105.79788208 136.21914673 C-104.70472451 134.35883674 -103.60641392 132.50163075 -102.5078125 130.64453125 C-101.73752924 129.3368587 -100.96743082 128.02907725 -100.19750977 126.72119141 C-94.78719914 117.54150416 -89.32078391 108.39572796 -83.82519531 99.2668457 C-78.93504455 91.14210484 -74.08860865 82.99214347 -69.2578125 74.83203125 C-68.72134598 73.92587067 -68.72134598 73.92587067 -68.17404175 73.00140381 C-66.18017305 69.63301308 -64.18729912 66.2640353 -62.1953125 62.89453125 C-62.79714355 62.10767944 -62.79714355 62.10767944 -63.41113281 61.30493164 C-68.80458654 54.19560174 -68.80458654 54.19560174 -70.9453125 50.33203125 C-71.33203125 49.65011719 -71.71875 48.96820313 -72.1171875 48.265625 C-76.51241522 38.59930896 -76.9908096 26.13933208 -73.6953125 16.01953125 C-68.47638883 3.97022677 -60.11825356 -4.65448493 -48.1953125 -9.98046875 C-31.47634206 -16.40596434 -12.9426109 -12.41293109 0 0 Z " fill="#5E9996" transform="translate(435.1953125,412.10546875)"/>
<path d="M0 0 C9.12697149 9.89466068 12.59290918 21.57997191 12.33203125 34.76171875 C11.84156391 45.39978618 7.18432829 54.17148624 0.0625 61.9375 C-10.46541049 71.30088825 -21.91087838 75.67120021 -35.9375 74.9375 C-38.60980334 74.6388975 -41.2715945 74.29108326 -43.9375 73.9375 C-44.44796875 74.86046875 -44.9584375 75.7834375 -45.484375 76.734375 C-50.78330887 86.261538 -56.31450629 95.63066858 -61.9453125 104.96484375 C-64.74332004 109.6050681 -67.50586101 114.26524933 -70.25 118.9375 C-70.62181396 119.57034912 -70.99362793 120.20319824 -71.37670898 120.85522461 C-74.90869489 126.87581381 -78.42040099 132.90818742 -81.9375 138.9375 C-13.2975 138.9375 55.3425 138.9375 126.0625 138.9375 C125.0725 139.2675 124.0825 139.5975 123.0625 139.9375 C123.0625 140.5975 123.0625 141.2575 123.0625 141.9375 C79.90991813 141.85580664 36.75736984 141.76367142 -6.39515897 141.65744839 C-11.4847933 141.64492888 -16.57442783 141.6324962 -21.6640625 141.62011719 C-22.67735629 141.61765119 -23.69065007 141.6151852 -24.73464973 141.61264448 C-41.16150004 141.5728747 -57.58835726 141.54014607 -74.01522772 141.51000018 C-90.85922307 141.47893281 -107.70318896 141.44034378 -124.54715121 141.39470994 C-134.94843935 141.36676962 -145.34970584 141.34476073 -155.75102152 141.33023749 C-162.87472427 141.31972984 -169.99838518 141.30194435 -177.12205647 141.27833296 C-181.23765771 141.26490995 -185.35320007 141.25479414 -189.46882439 141.25328636 C-193.23151745 141.25183739 -196.99406849 141.24131688 -200.75671799 141.22336559 C-202.7733497 141.21616531 -204.7900091 141.21886463 -206.80665147 141.22183573 C-207.99150467 141.21437024 -209.17635787 141.20690475 -210.39711571 141.19921303 C-211.4261578 141.19693471 -212.4551999 141.19465638 -213.51542509 141.19230902 C-215.9375 140.9375 -215.9375 140.9375 -217.9375 138.9375 C-182.6275 138.9375 -147.3175 138.9375 -110.9375 138.9375 C-107.9675 133.6575 -104.9975 128.3775 -101.9375 122.9375 C-99.41006071 118.63623923 -96.87258129 114.34406049 -94.3125 110.0625 C-88.11137967 99.65709409 -82.01208765 89.19761701 -75.98583984 78.68994141 C-72.37284204 72.39577749 -68.69751184 66.14503436 -64.9375 59.9375 C-65.44418213 59.26227295 -65.95086426 58.5870459 -66.47290039 57.89135742 C-73.38412751 48.59125169 -77.02108343 38.69930561 -75.9375 26.9375 C-73.77920025 14.48054158 -68.60252634 3.73272446 -58.359375 -4.01171875 C-39.54585478 -16.54530694 -17.13547876 -15.59357659 0 0 Z " fill="#5E9996" transform="translate(631.9375,530.0625)"/>
<path d="M0 0 C1.13476562 1.72753906 1.13476562 1.72753906 2 4 C1.25585938 6.09277344 1.25585938 6.09277344 -0.15625 8.359375 C-0.67678955 9.21490967 -1.1973291 10.07044434 -1.73364258 10.9519043 C-2.31654053 11.87527588 -2.89943848 12.79864746 -3.5 13.75 C-4.7237169 15.75065371 -5.94633701 17.75197862 -7.16796875 19.75390625 C-7.80524902 20.78789551 -8.4425293 21.82188477 -9.09912109 22.88720703 C-12.08355509 27.7743806 -14.94462666 32.73135336 -17.8125 37.6875 C-23.4912626 47.4502606 -29.23704429 57.17218222 -35.00976562 66.87963867 C-38.37694301 72.54840499 -41.72083827 78.22868887 -45.01953125 83.9375 C-45.65826172 85.04158203 -46.29699219 86.14566406 -46.95507812 87.28320312 C-48.16492377 89.37848785 -49.37085607 91.47603863 -50.57226562 93.57617188 C-51.11173828 94.51009766 -51.65121094 95.44402344 -52.20703125 96.40625 C-52.6760083 97.22416016 -53.14498535 98.04207031 -53.62817383 98.88476562 C-54.9215901 100.87909888 -56.25211517 102.40053567 -58 104 C-57.41196203 100.97580475 -56.77321882 97.98241547 -56 95 C-55.34 95 -54.68 95 -54 95 C-50.47835945 87.68146252 -50.47835945 87.68146252 -51 80 C-50.01 79.67 -49.02 79.34 -48 79 C-48.66 77.35 -49.32 75.7 -50 74 C-49.01 74 -48.02 74 -47 74 C-47 72.35 -47 70.7 -47 69 C-49.87420123 71.71604715 -49.87420123 71.71604715 -52 75 C-52.66 75 -53.32 75 -54 75 C-54.33 75.99 -54.66 76.98 -55 78 C-57.375 78.1875 -57.375 78.1875 -60 78 C-62 75 -62 75 -63 72.375 C-63.76047262 69.84860062 -63.76047262 69.84860062 -66 69 C-66.33 69.66 -66.66 70.32 -67 71 C-67 70.34 -67 69.68 -67 69 C-67.99 68.67 -68.98 68.34 -70 68 C-69.34 67.67 -68.68 67.34 -68 67 C-68.99 66.34 -69.98 65.68 -71 65 C-71 64.01 -71 63.02 -71 62 C-71.66 62.99 -72.32 63.98 -73 65 C-73.66 65 -74.32 65 -75 65 C-75 64.34 -75 63.68 -75 63 C-75.66 63 -76.32 63 -77 63 C-77 63.66 -77 64.32 -77 65 C-77.66 65 -78.32 65 -79 65 C-79.33 65.66 -79.66 66.32 -80 67 C-80.598125 66.67 -81.19625 66.34 -81.8125 66 C-84.05386471 64.79212012 -84.05386471 64.79212012 -87 65 C-87.66 64.34 -88.32 63.68 -89 63 C-89.33 64.65 -89.66 66.3 -90 68 C-93.37817425 68.84454356 -95.67465243 69.10844919 -99 68 C-99.33 68.66 -99.66 69.32 -100 70 C-99.34 70.66 -98.68 71.32 -98 72 C-98.66 72.66 -99.32 73.32 -100 74 C-100.4125 73.278125 -100.825 72.55625 -101.25 71.8125 C-102.98736803 69.02030138 -104.90381857 66.52987415 -107 64 C-107.99 64.99 -108.98 65.98 -110 67 C-108.68 67 -107.36 67 -106 67 C-106 67.66 -106 68.32 -106 69 C-105.34 69.33 -104.68 69.66 -104 70 C-104.99 70.99 -105.98 71.98 -107 73 C-108.485 72.01 -108.485 72.01 -110 71 C-110 70.34 -110 69.68 -110 69 C-110.66 69 -111.32 69 -112 69 C-112.33 69.66 -112.66 70.32 -113 71 C-114.485 71.495 -114.485 71.495 -116 72 C-116 72.66 -116 73.32 -116 74 C-117.98 74.99 -117.98 74.99 -120 76 C-119.45276317 72.62537285 -118.9451 70.91765 -117 68 C-117.66 68 -118.32 68 -119 68 C-119.66 68.66 -120.32 69.32 -121 70 C-122.34061543 69.69728039 -123.67405895 69.36162029 -125 69 C-126.485 69.495 -126.485 69.495 -128 70 C-126.02 70.99 -126.02 70.99 -124 72 C-124.165 72.928125 -124.33 73.85625 -124.5 74.8125 C-125.07748388 77.95621353 -125.07748388 77.95621353 -125 81 C-126.375 82.6875 -126.375 82.6875 -128 84 C-128.66 84 -129.32 84 -130 84 C-130 84.66 -130 85.32 -130 86 C-130.66 86 -131.32 86 -132 86 C-132.5745952 82.26513121 -133 78.78706732 -133 75 C-133.61875 75.495 -134.2375 75.99 -134.875 76.5 C-137 78 -137 78 -139 78 C-139.33 78.66 -139.66 79.32 -140 80 C-141 80 -142 80 -143 80 C-143.66 81.32 -144.32 82.64 -145 84 C-145.99 83.01 -146.98 82.02 -148 81 C-148.433125 81.474375 -148.86625 81.94875 -149.3125 82.4375 C-151 84 -151 84 -154 85 C-154.99 84.01 -154.99 84.01 -156 83 C-156.99 83.99 -157.98 84.98 -159 86 C-159.99 85.01 -160.98 84.02 -162 83 C-162 83.66 -162 84.32 -162 85 C-163.65 84.67 -165.3 84.34 -167 84 C-167 82.68 -167 81.36 -167 80 C-169.96992462 82.84079746 -171.06957224 85.01245245 -172 89 C-172.66 89 -173.32 89 -174 89 C-174 87.68 -174 86.36 -174 85 C-174.928125 85.33 -175.85625 85.66 -176.8125 86 C-180 87 -180 87 -183 87 C-181.515 87.99 -181.515 87.99 -180 89 C-179.3125 91.125 -179.3125 91.125 -179 93 C-180.875 93.625 -180.875 93.625 -183 94 C-183.66 93.34 -184.32 92.68 -185 92 C-185.99 92.99 -185.99 92.99 -187 94 C-188.65071396 95.02611949 -190.31970006 96.02308143 -192 97 C-192.86625 97.5775 -193.7325 98.155 -194.625 98.75 C-195.40875 99.1625 -196.1925 99.575 -197 100 C-197.99 99.67 -198.98 99.34 -200 99 C-197.6406603 94.14465787 -194.8301865 89.56786256 -192.0625 84.9375 C-191.52431641 84.02677734 -190.98613281 83.11605469 -190.43164062 82.17773438 C-189.90892578 81.30310547 -189.38621094 80.42847656 -188.84765625 79.52734375 C-188.1362146 78.33226196 -188.1362146 78.33226196 -187.41040039 77.11303711 C-186 75 -186 75 -184.38452148 73.40454102 C-182.73395147 71.93649134 -182.73395147 71.93649134 -182 69 C-181.34 69.33 -180.68 69.66 -180 70 C-180 70.99 -180 71.98 -180 73 C-177.73985111 72.15773072 -177.73985111 72.15773072 -177.125 69.5625 C-176 67 -176 67 -173.875 65.6875 C-173.25625 65.460625 -172.6375 65.23375 -172 65 C-171.52949219 65.3609375 -171.05898438 65.721875 -170.57421875 66.09375 C-169.95160156 66.5578125 -169.32898438 67.021875 -168.6875 67.5 C-168.07261719 67.9640625 -167.45773437 68.428125 -166.82421875 68.90625 C-164.92566995 70.25711283 -164.92566995 70.25711283 -162 70 C-162.33 69.01 -162.66 68.02 -163 67 C-162.34 66.34 -161.68 65.68 -161 65 C-160.34 65 -159.68 65 -159 65 C-158.34 64.34 -157.68 63.68 -157 63 C-157 63.66 -157 64.32 -157 65 C-156.01 65.495 -156.01 65.495 -155 66 C-155.99 66.66 -156.98 67.32 -158 68 C-157.01 68.66 -156.02 69.32 -155 70 C-154.79375 69.38125 -154.5875 68.7625 -154.375 68.125 C-152.46293283 65.1699871 -150.27219312 65.04431695 -147 64 C-146.67 63.01 -146.34 62.02 -146 61 C-145.67 60.01 -145.34 59.02 -145 58 C-143.3603125 58.2784375 -143.3603125 58.2784375 -141.6875 58.5625 C-138.06375867 59.2578068 -138.06375867 59.2578068 -135 58 C-135.33 57.34 -135.66 56.68 -136 56 C-136.66 56.66 -137.32 57.32 -138 58 C-137.625 55.5625 -137.625 55.5625 -137 53 C-136.34 52.67 -135.68 52.34 -135 52 C-132.875 52.9375 -132.875 52.9375 -131 54 C-130.01 53.01 -130.01 53.01 -129 52 C-129 52.66 -129 53.32 -129 54 C-128.34 53.67 -127.68 53.34 -127 53 C-127.556875 52.29875 -128.11375 51.5975 -128.6875 50.875 C-129.120625 49.92625 -129.55375 48.9775 -130 48 C-128.6875 44.6875 -128.6875 44.6875 -127 42 C-125.5 43.375 -125.5 43.375 -124 45 C-124 45.66 -124 46.32 -124 47 C-122.783125 46.814375 -121.56625 46.62875 -120.3125 46.4375 C-117.59960965 46.07865207 -115.95802544 46.00953967 -113.25 46.625 C-110.87523674 47.27531251 -110.87523674 47.27531251 -108.6875 45.5625 C-108.130625 45.046875 -107.57375 44.53125 -107 44 C-106.67 44.99 -106.34 45.98 -106 47 C-102.59679258 45.98823563 -101.24274669 45.35156418 -99.1875 42.375 C-98.5996875 41.199375 -98.5996875 41.199375 -98 40 C-97.113125 40.20625 -96.22625 40.4125 -95.3125 40.625 C-91.7747289 41.02550239 -90.13367033 40.56683516 -87 39 C-87 38.34 -87 37.68 -87 37 C-82.52355635 33.71727466 -79.62020198 32 -74 32 C-72.65835921 32.2981424 -71.32148827 32.62243192 -70 33 C-70.99 33.495 -70.99 33.495 -72 34 C-71.01 38.455 -71.01 38.455 -70 43 C-66.10540926 41.31622777 -66.10540926 41.31622777 -64 39 C-63.44570313 39.28875 -62.89140625 39.5775 -62.3203125 39.875 C-61.59585938 40.24625 -60.87140625 40.6175 -60.125 41 C-59.40570312 41.37125 -58.68640625 41.7425 -57.9453125 42.125 C-56.05151023 43.13673746 -56.05151023 43.13673746 -54 43 C-53.67 42.34 -53.34 41.68 -53 41 C-51.88625 40.4121875 -51.88625 40.4121875 -50.75 39.8125 C-47.0865027 37.39792224 -45.41086709 34.65074159 -43 31 C-42.67 31.66 -42.34 32.32 -42 33 C-38.97065509 33.65772428 -38.97065509 33.65772428 -36 34 C-36.33 32.68 -36.66 31.36 -37 30 C-29.94237013 28.47402597 -29.94237013 28.47402597 -26.3125 30.5 C-25.1678125 31.2425 -25.1678125 31.2425 -24 32 C-23.67 31.34 -23.34 30.68 -23 30 C-22.67 30.66 -22.34 31.32 -22 32 C-21.01 31.505 -21.01 31.505 -20 31 C-20.99 27.535 -20.99 27.535 -22 24 C-21.01 24.66 -20.02 25.32 -19 26 C-16.89767656 23.1315587 -16.89767656 23.1315587 -16 20 C-14.66666667 19.66666667 -13.33333333 19.33333333 -12 19 C-11.67 18.01 -11.34 17.02 -11 16 C-10.34 16 -9.68 16 -9 16 C-9 14.68 -9 13.36 -9 12 C-8.34 12 -7.68 12 -7 12 C-6.72414063 11.42765625 -6.44828125 10.8553125 -6.1640625 10.265625 C-5.00532152 8.01035733 -3.73124294 5.89143622 -2.375 3.75 C-1.70597656 2.69039062 -1.70597656 2.69039062 -1.0234375 1.609375 C-0.68570313 1.07828125 -0.34796875 0.5471875 0 0 Z M-79 34 C-79 34.99 -79 35.98 -79 37 C-78.34 37 -77.68 37 -77 37 C-77.33 36.01 -77.66 35.02 -78 34 C-78.33 34 -78.66 34 -79 34 Z M-158 70 C-157 72 -157 72 -157 72 Z M-58 74 C-57.67 74.66 -57.34 75.32 -57 76 C-56.34 75.67 -55.68 75.34 -55 75 C-55.99 74.67 -56.98 74.34 -58 74 Z " fill="#91C9B0" transform="translate(925,671)"/>
<path d="M0 0 C1 2 1 2 1 5 C1.62599617 6.68236471 2.28752268 8.3523962 3 10 C3.66 8.68 4.32 7.36 5 6 C6.65 6 8.3 6 10 6 C10.90983282 8.72949845 11 10.22134249 11 13 C12.98 13.66 14.96 14.32 17 15 C16.67 15.66 16.34 16.32 16 17 C17.65 17.99 19.3 18.98 21 20 C21.33 19.34 21.66 18.68 22 18 C23.65 18.33 25.3 18.66 27 19 C27 18.01 27 17.02 27 16 C26.34 16 25.68 16 25 16 C27 10 27 10 29 8 C28.34 7.34 27.68 6.68 27 6 C28.625 4.875 28.625 4.875 31 4 C34.25 4.875 34.25 4.875 37 6 C36.34 6.66 35.68 7.32 35 8 C34.83318891 11.08347826 34.83318891 11.08347826 35 14 C34.01 13.34 33.02 12.68 32 12 C32.495 13.485 32.495 13.485 33 15 C33.66 15.33 34.32 15.66 35 16 C35 16.66 35 17.32 35 18 C37.17450593 17.07536905 37.17450593 17.07536905 38.8125 14.875 C41 13 41 13 43.625 13.1875 C46 14 46 14 48 15 C48 15.66 48 16.32 48 17 C48.66 17.33 49.32 17.66 50 18 C50 19.32 50 20.64 50 22 C49.34 22 48.68 22 48 22 C48.49756092 24.75641416 48.49756092 24.75641416 50 27 C50.66 26.34 51.32 25.68 52 25 C52.99 25 53.98 25 55 25 C55 23.35 55 21.7 55 20 C55.66 20 56.32 20 57 20 C57.99 21.98 57.99 21.98 59 24 C58.34 24.66 57.68 25.32 57 26 C59.31 27.32 61.62 28.64 64 30 C64.33 29.34 64.66 28.68 65 28 C66.485 28.495 66.485 28.495 68 29 C68 29.66 68 30.32 68 31 C72.02739207 32.74898845 72.02739207 32.74898845 76.25 32.375 C78.27535377 30.78365061 79.05104075 29.37239812 80 27 C80.598125 27.226875 81.19625 27.45375 81.8125 27.6875 C82.534375 27.790625 83.25625 27.89375 84 28 C85.64594139 26.60411246 85.64594139 26.60411246 87 25 C87.66 25 88.32 25 89 25 C88.835 25.763125 88.67 26.52625 88.5 27.3125 C87.90854604 30.03596236 87.90854604 30.03596236 88 33 C87.34 33.99 86.68 34.98 86 36 C87.32 36.99 88.64 37.98 90 39 C89.67 39.33 89.34 39.66 89 40 C90.32 40.66 91.64 41.32 93 42 C93 42.99 93 43.98 93 45 C92.34 45 91.68 45 91 45 C90.505 45.99 90.505 45.99 90 47 C90.33 47.99 90.66 48.98 91 50 C91.99 49.67 92.98 49.34 94 49 C94.33 49.66 94.66 50.32 95 51 C95.66 50.67 96.32 50.34 97 50 C97.33 50.66 97.66 51.32 98 52 C99.94603274 52.59070014 99.94603274 52.59070014 102 53 C102.66 53.33 103.32 53.66 104 54 C104 54.66 104 55.32 104 56 C104.99 55.67 105.98 55.34 107 55 C107.08114106 56.77007714 107.13925505 58.54122098 107.1875 60.3125 C107.22230469 61.29863281 107.25710937 62.28476562 107.29296875 63.30078125 C107 66 107 66 105.48828125 67.85546875 C104.99714844 68.23316406 104.50601563 68.61085938 104 69 C103.67 68.34 103.34 67.68 103 67 C101.04105639 67.11306697 101.04105639 67.11306697 99 68 C97.70339566 70.49034386 97.70339566 70.49034386 97 73 C92.125 70.375 92.125 70.375 91 67 C89.515 66.01 89.515 66.01 88 65 C88 65.99 88 66.98 88 68 C86.515 68.495 86.515 68.495 85 69 C82.9857293 66.73394546 82.03721591 65.50861739 81.8125 62.4375 C81.9053125 61.2309375 81.9053125 61.2309375 82 60 C82 59.01 82 58.02 82 57 C80.515 56.505 80.515 56.505 79 56 C78.67 56.99 78.34 57.98 78 59 C77.67 59.33 77.34 59.66 77 60 C78.485 60.495 78.485 60.495 80 61 C78.515 61.495 78.515 61.495 77 62 C77.495 63.98 77.495 63.98 78 66 C76.66666667 66.66666667 75.33333333 67.33333333 74 68 C71.96022723 64.75490696 70.33488128 61.59391114 69 58 C68.01 58 67.02 58 66 58 C66 57.34 66 56.68 66 56 C64.35333797 56.1135629 62.70763918 56.24117381 61.0625 56.375 C59.68771484 56.47941406 59.68771484 56.47941406 58.28515625 56.5859375 C57.15400391 56.79089844 57.15400391 56.79089844 56 57 C55.505 57.99 55.505 57.99 55 59 C54.01 59 53.02 59 52 59 C51.01 59.99 51.01 59.99 50 61 C49.34 61 48.68 61 48 61 C48 60.34 48 59.68 48 59 C48.66 59 49.32 59 50 59 C49.67 58.01 49.34 57.02 49 56 C49.99 55.67 50.98 55.34 52 55 C52.66 55.33 53.32 55.66 54 56 C53.505 54.02 53.505 54.02 53 52 C52.505 52.99 52.505 52.99 52 54 C51.34 53.34 50.68 52.68 50 52 C49.62875 52.928125 49.62875 52.928125 49.25 53.875 C48 56 48 56 46.1875 57.4375 C44 58 44 58 41.375 56.6875 C40.59125 56.130625 39.8075 55.57375 39 55 C38.34 54.67 37.68 54.34 37 54 C37.99 53.01 37.99 53.01 39 52 C39.66 52 40.32 52 41 52 C41 51.34 41 50.68 41 50 C38.23735711 49.40267181 35.83967231 49 33 49 C32.34 49.99 31.68 50.98 31 52 C30.34 52.66 29.68 53.32 29 54 C28.67 53.01 28.34 52.02 28 51 C28.495 50.01 28.495 50.01 29 49 C28.01 48.505 28.01 48.505 27 48 C27 48.66 27 49.32 27 50 C24.09451118 52.04169485 22.59857954 53 19 53 C18.06576355 49.98968256 17.95550089 49.13349732 19 46 C18.01 46.33 17.02 46.66 16 47 C16.20625 46.4225 16.4125 45.845 16.625 45.25 C17.08661261 42.48032433 16.42944945 41.35438733 15 39 C14.01 39.33 13.02 39.66 12 40 C13.875 34.125 13.875 34.125 15 33 C14.01 32.67 13.02 32.34 12 32 C12 32.66 12 33.32 12 34 C11.01 33.505 11.01 33.505 10 33 C10 32.01 10 31.02 10 30 C9.34 30 8.68 30 8 30 C8 29.01 8 28.02 8 27 C6.02 27.66 4.04 28.32 2 29 C2.33 29.66 2.66 30.32 3 31 C2.34 31 1.68 31 1 31 C0.67 31.66 0.34 32.32 0 33 C-0.33 32.34 -0.66 31.68 -1 31 C-1.4125 31.45375 -1.825 31.9075 -2.25 32.375 C-4.06408095 34.05950374 -5.75285627 34.99265971 -8 36 C-8.66 35.34 -9.32 34.68 -10 34 C-10.99 34.66 -11.98 35.32 -13 36 C-13 35.34 -13 34.68 -13 34 C-17.05723077 35.35241026 -18.49085419 37.60926242 -21 41 C-21 41.99 -21 42.98 -21 44 C-23.19897551 46.83552106 -25.46328806 49.46328806 -28 52 C-27.46399237 47.49022863 -26.33836097 44.33594655 -24.04296875 40.4296875 C-23.4301001 39.37700684 -22.81723145 38.32432617 -22.18579102 37.23974609 C-21.52635498 36.12937988 -20.86691895 35.01901367 -20.1875 33.875 C-19.51092473 32.7212835 -18.83506859 31.567145 -18.15991211 30.41259766 C-16.12059138 26.93333362 -14.0621591 23.46578017 -12 20 C-11.37834961 18.95457031 -10.75669922 17.90914063 -10.11621094 16.83203125 C-6.76580409 11.20819967 -3.39547924 5.59673282 0 0 Z M8 12 C9 14 9 14 9 14 Z M32 17 C32.33 17.99 32.66 18.98 33 20 C33.66 19.34 34.32 18.68 35 18 C34.01 17.67 33.02 17.34 32 17 Z M-8 32 C-7.67 32.66 -7.34 33.32 -7 34 C-6.67 33.34 -6.34 32.68 -6 32 C-6.66 32 -7.32 32 -8 32 Z M42 45 C42 48 42 48 42 48 Z M37 46 C38 48 38 48 38 48 Z M41 48 C42 50 42 50 42 50 Z M102 55 C102 55.66 102 56.32 102 57 C102.66 56.67 103.32 56.34 104 56 C103.34 55.67 102.68 55.34 102 55 Z " fill="#91C9B0" transform="translate(101,299)"/>
<path d="M0 0 C0 3.70103827 -1.3608576 5.72171521 -3 9 C-3 9.99 -3 10.98 -3 12 C-4.06640625 13.91015625 -4.06640625 13.91015625 -5.5625 16.0625 C-6.10390625 16.85011719 -6.6453125 17.63773438 -7.203125 18.44921875 C-8.43938419 20.2041693 -9.67917159 21.95663803 -10.921875 23.70703125 C-11.54578125 24.58746094 -12.1696875 25.46789062 -12.8125 26.375 C-13.39644531 27.18710937 -13.98039063 27.99921875 -14.58203125 28.8359375 C-16.15249497 31.03176286 -16.15249497 31.03176286 -17 34 C-17.66 34 -18.32 34 -19 34 C-19.19335938 34.63808594 -19.38671875 35.27617188 -19.5859375 35.93359375 C-19.84632813 36.75988281 -20.10671875 37.58617187 -20.375 38.4375 C-20.63023437 39.26121094 -20.88546875 40.08492187 -21.1484375 40.93359375 C-22 43 -22 43 -24 44 C-25.11634152 45.65051288 -25.11634152 45.65051288 -26.125 47.5625 C-26.74375 48.696875 -27.3625 49.83125 -28 51 C-28.99 51 -29.98 51 -31 51 C-33.82205934 48.06505829 -34.86059291 44.85645478 -36 41 C-36.99 41 -37.98 41 -39 41 C-39.33 40.01 -39.66 39.02 -40 38 C-40.66 37.34 -41.32 36.68 -42 36 C-42.99 36.33 -43.98 36.66 -45 37 C-45.495 33.535 -45.495 33.535 -46 30 C-48.82954525 28.74865147 -48.82954525 28.74865147 -51.0625 29.5625 C-51.701875 29.706875 -52.34125 29.85125 -53 30 C-53.66 29.34 -54.32 28.68 -55 28 C-57.6215642 27.72172748 -57.6215642 27.72172748 -60.6640625 27.8046875 C-62.34628906 27.81435547 -62.34628906 27.81435547 -64.0625 27.82421875 C-65.238125 27.84097656 -66.41375 27.85773437 -67.625 27.875 C-68.80835938 27.88402344 -69.99171875 27.89304687 -71.2109375 27.90234375 C-74.14082523 27.92597188 -77.0703134 27.95891486 -80 28 C-80 27.34 -80 26.68 -80 26 C-67.79 26 -55.58 26 -43 26 C-43 25.34 -43 24.68 -43 24 C-39.07571101 22.51042527 -35.15827823 21.03739857 -31.17578125 19.7109375 C-19.01331042 15.5665499 -8.70031589 9.69463771 0 0 Z " fill="#91C9B0" transform="translate(798,646)"/>
<path d="M0 0 C113.52 0 227.04 0 344 0 C342.515 0.495 342.515 0.495 341 1 C341 1.66 341 2.32 341 3 C297.84741813 2.91830664 254.69486984 2.82617142 211.54234103 2.71994839 C206.4527067 2.70742888 201.36307217 2.6949962 196.2734375 2.68261719 C195.26014371 2.68015119 194.24684993 2.6776852 193.20285027 2.67514448 C176.77599996 2.6353747 160.34914274 2.60264607 143.92227228 2.57250018 C127.07827693 2.54143281 110.23431104 2.50284378 93.39034879 2.45720994 C82.98906065 2.42926962 72.58779416 2.40726073 62.18647848 2.39273749 C55.06277573 2.38222984 47.93911482 2.36444435 40.81544353 2.34083296 C36.69984229 2.32740995 32.58429993 2.31729414 28.46867561 2.31578636 C24.70598255 2.31433739 20.94343151 2.30381688 17.18078201 2.28586559 C15.1641503 2.27866531 13.1474909 2.28136463 11.13084853 2.28433573 C9.94599533 2.27687024 8.76114213 2.26940475 7.54038429 2.26171303 C6.5113422 2.25943471 5.4823001 2.25715638 4.42207491 2.25480902 C2 2 2 2 0 0 Z " fill="#7DB199" transform="translate(414,669)"/>
<path d="M0 0 C0.495 0.99 0.495 0.99 1 2 C-0.01293945 4.25219727 -0.01293945 4.25219727 -1.61328125 7.06640625 C-2.19650146 8.10015381 -2.77972168 9.13390137 -3.38061523 10.19897461 C-4.01813721 11.30893799 -4.65565918 12.41890137 -5.3125 13.5625 C-5.95968994 14.70275635 -6.60687988 15.8430127 -7.27368164 17.01782227 C-11.15434728 23.83630051 -15.07909582 30.62880518 -19.08789062 37.37280273 C-21.6892224 41.7511825 -24.24272804 46.1545737 -26.7734375 50.57421875 C-27.10567825 51.15382858 -27.43791901 51.73343842 -27.78022766 52.33061218 C-29.43635346 55.21994512 -31.08907348 58.11106587 -32.73608398 61.00561523 C-35.91633801 66.55476102 -39.15425675 71.88699279 -43 77 C-43.33 76.34 -43.66 75.68 -44 75 C-42.99951172 72.78857422 -42.99951172 72.78857422 -41.4296875 70.0546875 C-40.8625 69.05953125 -40.2953125 68.064375 -39.7109375 67.0390625 C-38.80214844 65.47285156 -38.80214844 65.47285156 -37.875 63.875 C-37.29234375 62.8540625 -36.7096875 61.833125 -36.109375 60.78125 C-33.64820687 56.48800156 -31.1663878 52.21689569 -28.51953125 48.03515625 C-25.11022099 42.64678296 -21.98354849 37.09308915 -18.8125 31.5625 C-17.48358802 29.25230533 -16.15430656 26.94232972 -14.82421875 24.6328125 C-14.17630371 23.5077832 -13.52838867 22.38275391 -12.86083984 21.22363281 C-10.29874394 16.78517646 -7.71943239 12.35712213 -5.125 7.9375 C-4.71483643 7.23633057 -4.30467285 6.53516113 -3.88208008 5.81274414 C-1.12099063 1.12099063 -1.12099063 1.12099063 0 0 Z " fill="#518A8E" transform="translate(858,545)"/>
<path d="M0 0 C0.66 0 1.32 0 2 0 C-0.23488568 5.90357247 -3.35377342 11.25658544 -6.4375 16.75 C-7.31631836 18.34908203 -7.31631836 18.34908203 -8.21289062 19.98046875 C-8.78072266 20.99238281 -9.34855469 22.00429688 -9.93359375 23.046875 C-10.7078772 24.43664551 -10.7078772 24.43664551 -11.49780273 25.85449219 C-13 28 -13 28 -16 29 C-13.69793253 22.84407506 -10.29741317 17.35203207 -7 11.6875 C-6.35804687 10.56537109 -5.71609375 9.44324219 -5.0546875 8.28710938 C-4.43851563 7.22685547 -3.82234375 6.16660156 -3.1875 5.07421875 C-2.62417969 4.10057373 -2.06085937 3.12692871 -1.48046875 2.1237793 C-0.99191406 1.42293213 -0.50335938 0.72208496 0 0 Z " fill="#8BC0A7" transform="translate(43,398)"/>
<path d="M0 0 C0.33 0.66 0.66 1.32 1 2 C0.01 2.495 0.01 2.495 -1 3 C-2.00758831 4.66209012 -3.00631494 6.3295606 -4 8 C-5.31428534 9.63700095 -6.66924725 11.24216092 -8.0625 12.8125 C-9.10083984 13.99779297 -9.10083984 13.99779297 -10.16015625 15.20703125 C-12 17 -12 17 -14 17 C-14.66 18.32 -15.32 19.64 -16 21 C-14.72912344 11.83038432 -6.8613 5.54250467 0 0 Z " fill="#599290" transform="translate(513,395)"/>
<path d="M0 0 C0.33 0.66 0.66 1.32 1 2 C2.65 1.67 4.3 1.34 6 1 C5.33333333 2.66666667 4.66666667 4.33333333 4 6 C3.7525 6.886875 3.505 7.77375 3.25 8.6875 C2 11 2 11 -1.125 12.3125 C-2.07375 12.539375 -3.0225 12.76625 -4 13 C-3.690625 12.278125 -3.38125 11.55625 -3.0625 10.8125 C-2.07119543 8.18845849 -1.50653271 5.74974902 -1 3 C-0.67 2.01 -0.34 1.02 0 0 Z " fill="#91C9B1" transform="translate(97,333)"/>
<path d="M0 0 C0.66 0.66 1.32 1.32 2 2 C1.62185478 5.63663064 -0.30314008 8.60561205 -2.0625 11.75 C-2.61035156 12.73484375 -3.15820312 13.7196875 -3.72265625 14.734375 C-4.14417969 15.48203125 -4.56570312 16.2296875 -5 17 C-5.99 16.67 -6.98 16.34 -8 16 C-6.42986223 10.03347646 -3.24970218 5.17090975 0 0 Z " fill="#90C5A7" transform="translate(110,283)"/>
<path d="M0 0 C0.33 0.66 0.66 1.32 1 2 C-0.0390625 4.1015625 -0.0390625 4.1015625 -1.625 6.625 C-2.45644531 7.9553125 -2.45644531 7.9553125 -3.3046875 9.3125 C-3.86414063 10.199375 -4.42359375 11.08625 -5 12 C-5.47695312 12.804375 -5.95390625 13.60875 -6.4453125 14.4375 C-6.87585937 15.159375 -7.30640625 15.88125 -7.75 16.625 C-8.13671875 17.27726562 -8.5234375 17.92953125 -8.921875 18.6015625 C-9.27765625 19.06304687 -9.6334375 19.52453125 -10 20 C-10.66 20 -11.32 20 -12 20 C-10.41555427 15.67578354 -8.282196 11.73557417 -6 7.75 C-5.64421875 7.11320312 -5.2884375 6.47640625 -4.921875 5.8203125 C-2.24237351 1.12118676 -2.24237351 1.12118676 0 0 Z " fill="#89BFA6" transform="translate(70,354)"/>
<path d="M0 0 C1 2 1 2 1 5 C1.31088368 6.67099977 1.64080332 8.33871537 2 10 C1.01 10 0.02 10 -1 10 C-1.33 10.66 -1.66 11.32 -2 12 C-4.5625 12.625 -4.5625 12.625 -7 13 C-5.35821735 8.22390502 -2.73453298 4.20617096 0 0 Z " fill="#8DC3A9" transform="translate(101,299)"/>
<path d="M0 0 C0.33 0.66 0.66 1.32 1 2 C-0.40895236 4.61788643 -1.86243091 7.11045672 -3.4375 9.625 C-3.87126953 10.33140625 -4.30503906 11.0378125 -4.75195312 11.765625 C-5.82748132 13.51483568 -6.91283725 15.25799654 -8 17 C-9.13583456 13.28272326 -8.66670026 11.52948291 -7 8 C-6.34 8 -5.68 8 -5 8 C-4.731875 7.236875 -4.46375 6.47375 -4.1875 5.6875 C-3.05575888 3.12619116 -2.08776599 1.80307062 0 0 Z " fill="#8CC1A4" transform="translate(876,758)"/>
<path d="M0 0 C0.66 0 1.32 0 2 0 C0.14506608 5.71937959 -1.93103891 11.35555275 -4 17 C-4.66 17 -5.32 17 -6 17 C-6.33 17.66 -6.66 18.32 -7 19 C-5.74646681 11.93463111 -3.43796251 6.28543527 0 0 Z " fill="#89BFA9" transform="translate(14,448)"/>
<path d="M0 0 C3.465 1.485 3.465 1.485 7 3 C6.34 4.32 5.68 5.64 5 7 C4.34 7 3.68 7 3 7 C2.67 7.66 2.34 8.32 2 9 C0.66666667 7 -0.66666667 5 -2 3 C-1.34 2.01 -0.68 1.02 0 0 Z " fill="#90C8B1" transform="translate(121,362)"/>
<path d="M0 0 C0 3 0 3 -2 6 C-2.66 6 -3.32 6 -4 6 C-4 6.66 -4 7.32 -4 8 C-4.61875 8.268125 -5.2375 8.53625 -5.875 8.8125 C-8.2995233 9.95556848 -8.2995233 9.95556848 -10 13 C-11.32 12.67 -12.64 12.34 -14 12 C-12.98679687 11.20335937 -12.98679687 11.20335937 -11.953125 10.390625 C-11.06109375 9.68421875 -10.1690625 8.9778125 -9.25 8.25 C-8.36828125 7.55390625 -7.4865625 6.8578125 -6.578125 6.140625 C-4.24152752 4.20054103 -2.1061438 2.18487814 0 0 Z " fill="#88BDA1" transform="translate(798,646)"/>
<path d="M0 0 C0.97226335 2.59072612 1.11611108 3.69699083 0.109375 6.32421875 C-0.33921875 7.10410156 -0.7878125 7.88398437 -1.25 8.6875 C-1.68828125 9.47511719 -2.1265625 10.26273438 -2.578125 11.07421875 C-4 13 -4 13 -7 14 C-7 10 -7 10 -5.75 8.6875 C-4.88375 7.8521875 -4.88375 7.8521875 -4 7 C-2.56937361 4.71304885 -1.29584324 2.36826523 0 0 Z " fill="#8FC4A7" transform="translate(864,776)"/>
<path d="M0 0 C0.66 0.99 1.32 1.98 2 3 C0.35 4.32 -1.3 5.64 -3 7 C-4.9375 6.1875 -4.9375 6.1875 -7 5 C-7.33 4.01 -7.66 3.02 -8 2 C-6.865625 1.855625 -5.73125 1.71125 -4.5625 1.5625 C-1.19222799 1.38828522 -1.19222799 1.38828522 0 0 Z " fill="#92C9B0" transform="translate(848,737)"/>
<path d="M0 0 C0.33 0.66 0.66 1.32 1 2 C-0.24493748 4.28974316 -1.52641528 6.44190034 -2.9375 8.625 C-3.32357422 9.23601563 -3.70964844 9.84703125 -4.10742188 10.4765625 C-5.06446326 11.9889242 -6.03132811 13.49506117 -7 15 C-7.33 14.34 -7.66 13.68 -8 13 C-7.0625 10.375 -7.0625 10.375 -6 8 C-5.34 8 -4.68 8 -4 8 C-3.67 6.35 -3.34 4.7 -3 3 C-2.34 3 -1.68 3 -1 3 C-0.67 2.01 -0.34 1.02 0 0 Z " fill="#578F8D" transform="translate(454,594)"/>
<path d="M0 0 C0.99 0.495 0.99 0.495 2 1 C2 1.66 2 2.32 2 3 C2.99 3.33 3.98 3.66 5 4 C5 5.32 5 6.64 5 8 C5.99 8.33 6.98 8.66 8 9 C8.33 10.98 8.66 12.96 9 15 C6.36115438 12.59888822 4.63586471 9.99444972 2.8125 6.9375 C2.01779297 5.62072266 2.01779297 5.62072266 1.20703125 4.27734375 C0 2 0 2 0 0 Z " fill="#58908D" transform="translate(760,552)"/>
<path d="M0 0 C0.33 0.66 0.66 1.32 1 2 C-0.24493748 4.28974316 -1.52641528 6.44190034 -2.9375 8.625 C-3.32357422 9.23601563 -3.70964844 9.84703125 -4.10742188 10.4765625 C-5.06446326 11.9889242 -6.03132811 13.49506117 -7 15 C-7.33 14.34 -7.66 13.68 -8 13 C-7.0625 10.375 -7.0625 10.375 -6 8 C-5.34 8 -4.68 8 -4 8 C-3.67 6.35 -3.34 4.7 -3 3 C-2.34 3 -1.68 3 -1 3 C-0.67 2.01 -0.34 1.02 0 0 Z " fill="#578F8D" transform="translate(480,550)"/>
<path d="M0 0 C0.625 1.8125 0.625 1.8125 1 4 C0.01 5.485 0.01 5.485 -1 7 C-1.66 7 -2.32 7 -3 7 C-3.4021875 8.1446875 -3.4021875 8.1446875 -3.8125 9.3125 C-4.94424112 11.87380884 -5.91223401 13.19692938 -8 15 C-6.62712658 11.30123909 -4.93644547 8.0485524 -2.875 4.6875 C-2.33617187 3.80449219 -1.79734375 2.92148437 -1.2421875 2.01171875 C-0.83226562 1.34785156 -0.42234375 0.68398438 0 0 Z " fill="#578E8C" transform="translate(356,504)"/>
<path d="M0 0 C0.66 0 1.32 0 2 0 C0.43358249 4.30764815 -1.68336156 8.06171464 -4 12 C-4.9435441 9.46100862 -5.16906025 8.39090725 -4.07421875 5.859375 C-3.61660156 5.16328125 -3.15898438 4.4671875 -2.6875 3.75 C-2.23761719 3.04359375 -1.78773438 2.3371875 -1.32421875 1.609375 C-0.88722656 1.07828125 -0.45023438 0.5471875 0 0 Z " fill="#88BDA4" transform="translate(848,804)"/>
<path d="M0 0 C0.66 0 1.32 0 2 0 C0.68139111 4.61513112 -1.21355437 8.09897612 -4 12 C-4.9435441 9.46100862 -5.16906025 8.39090725 -4.07421875 5.859375 C-3.61660156 5.16328125 -3.15898438 4.4671875 -2.6875 3.75 C-2.23761719 3.04359375 -1.78773438 2.3371875 -1.32421875 1.609375 C-0.88722656 1.07828125 -0.45023438 0.5471875 0 0 Z " fill="#8CC1A3" transform="translate(902,712)"/>
<path d="M0 0 C0.33 0 0.66 0 1 0 C0.50769231 6.52307692 0.50769231 6.52307692 -2.0625 8.9375 C-2.701875 9.288125 -3.34125 9.63875 -4 10 C-4 5.27635085 -2.7758541 3.7011388 0 0 Z " fill="#8EC4A4" transform="translate(806,635)"/>
<path d="M0 0 C1 4 1 4 0.22265625 5.921875 C-0.8515625 7.61458333 -1.92578125 9.30729167 -3 11 C-3.99 10.67 -4.98 10.34 -6 10 C-4.02 6.7 -2.04 3.4 0 0 Z " fill="#8DC1A5" transform="translate(50,386)"/>
<path d="M0 0 C0.66 0.33 1.32 0.66 2 1 C2 1.66 2 2.32 2 3 C2.66 3.33 3.32 3.66 4 4 C2.02 4.99 0.04 5.98 -2 7 C-3 4 -3 4 -3 1 C-2.01 0.67 -1.02 0.34 0 0 Z " fill="#92C9B0" transform="translate(163,357)"/>
<path d="M0 0 C3.87511727 0.54984772 5.59576506 2.27555331 8.25 5.0625 C8.95640625 5.79597656 9.6628125 6.52945313 10.390625 7.28515625 C10.92171875 7.85105469 11.4528125 8.41695312 12 9 C11.67 9.99 11.34 10.98 11 12 C10.54109375 11.46890625 10.0821875 10.9378125 9.609375 10.390625 C6.50506283 6.81675301 3.41818688 3.28145941 0 0 Z " fill="#ABDDA9" transform="translate(783,73)"/>
<path d="M0 0 C0.65234375 1.734375 0.65234375 1.734375 1 4 C0.00390625 6.140625 0.00390625 6.140625 -1.4375 8.25 C-1.91058594 8.95640625 -2.38367188 9.6628125 -2.87109375 10.390625 C-3.24363281 10.92171875 -3.61617187 11.4528125 -4 12 C-4.65234375 10.265625 -4.65234375 10.265625 -5 8 C-4.00390625 5.859375 -4.00390625 5.859375 -2.5625 3.75 C-2.08941406 3.04359375 -1.61632812 2.3371875 -1.12890625 1.609375 C-0.75636719 1.07828125 -0.38382813 0.5471875 0 0 Z " fill="#8DC2A6" transform="translate(855,792)"/>
<path d="M0 0 C0.66 0.99 1.32 1.98 2 3 C0.35 4.32 -1.3 5.64 -3 7 C-3.33 6.34 -3.66 5.68 -4 5 C-4.99 5.33 -5.98 5.66 -7 6 C-7 5.34 -7 4.68 -7 4 C-7.66 3.67 -8.32 3.34 -9 3 C-8.01 2.67 -7.02 2.34 -6 2 C-5.34 2.33 -4.68 2.66 -4 3 C-3.01 2.67 -2.02 2.34 -1 2 C-0.67 1.34 -0.34 0.68 0 0 Z " fill="#92CAB0" transform="translate(822,751)"/>
<path d="M0 0 C0.66 0.33 1.32 0.66 2 1 C-0.54456151 3.96865509 -3.48994665 5.3619751 -7 7 C-7.99 6.34 -8.98 5.68 -10 5 C-8.38007835 4.13624104 -6.75388139 3.28424146 -5.125 2.4375 C-4.22007812 1.96183594 -3.31515625 1.48617187 -2.3828125 0.99609375 C-1.20332031 0.50302734 -1.20332031 0.50302734 0 0 Z " fill="#8FC3A4" transform="translate(782,659)"/>
<path d="M0 0 C0.66 0.99 1.32 1.98 2 3 C1.34 3 0.68 3 0 3 C0.103125 3.763125 0.20625 4.52625 0.3125 5.3125 C0.209375 6.199375 0.10625 7.08625 0 8 C-2.5 9.8125 -2.5 9.8125 -5 11 C-3.55049545 7.2089881 -1.84827434 3.6125362 0 0 Z " fill="#8EC2A3" transform="translate(128,252)"/>
<path d="M0 0 C0.75 1.5625 0.75 1.5625 1 4 C-0.13084437 6.50286409 -1.52139516 8.67007722 -3 11 C-3.66 10.67 -4.32 10.34 -5 10 C-3.66511872 6.40608886 -2.03977277 3.24509304 0 0 Z " fill="#8EC2A4" transform="translate(91,316)"/>
<path d="M0 0 C-1.28813342 0.83878455 -2.58063256 1.67086783 -3.875 2.5 C-4.59429688 2.9640625 -5.31359375 3.428125 -6.0546875 3.90625 C-8 5 -8 5 -10 5 C-9 2 -9 2 -6.6875 0.25 C-3.67809479 -1.14972335 -3.01958327 -0.95287489 0 0 Z " fill="#84BBA3" transform="translate(778,916)"/>
<path d="M0 0 C0.33 0.66 0.66 1.32 1 2 C-0.21484375 4.3828125 -0.21484375 4.3828125 -1.9375 7.125 C-2.50339844 8.03507813 -3.06929687 8.94515625 -3.65234375 9.8828125 C-4.09707031 10.58148437 -4.54179688 11.28015625 -5 12 C-5.33 11.34 -5.66 10.68 -6 10 C-5.0625 7.375 -5.0625 7.375 -4 5 C-3.34 5 -2.68 5 -2 5 C-1.34 3.35 -0.68 1.7 0 0 Z " fill="#558C8A" transform="translate(567,636)"/>
<path d="M0 0 C0.75 1.6875 0.75 1.6875 1 4 C-1.03495023 6.97974855 -3.38774841 9.51836099 -6 12 C-4.68139111 7.38486888 -2.78644563 3.90102388 0 0 Z " fill="#568D8B" transform="translate(456,545)"/>
<path d="M0 0 C0.33 0.66 0.66 1.32 1 2 C-0.21484375 4.3828125 -0.21484375 4.3828125 -1.9375 7.125 C-2.50339844 8.03507813 -3.06929688 8.94515625 -3.65234375 9.8828125 C-4.09707031 10.58148437 -4.54179687 11.28015625 -5 12 C-5.33 11.34 -5.66 10.68 -6 10 C-5.06421005 7.64018187 -4.06652192 5.30368736 -3 3 C-2.34 3 -1.68 3 -1 3 C-0.67 2.01 -0.34 1.02 0 0 Z " fill="#558B8A" transform="translate(487,538)"/>
<path d="M0 0 C0.33 0 0.66 0 1 0 C1 1.98 1 3.96 1 6 C-0.32 6.33 -1.64 6.66 -3 7 C-3.33 6.01 -3.66 5.02 -4 4 C-3.34 4 -2.68 4 -2 4 C-1.34 2.68 -0.68 1.36 0 0 Z " fill="#98CEAD" transform="translate(920,679)"/>
<path d="M0 0 C3 1 3 1 4.75 3.3125 C6.14972335 6.32190521 5.95287489 6.98041673 5 10 C4.16121545 8.71186658 3.32913217 7.41936744 2.5 6.125 C2.0359375 5.40570313 1.571875 4.68640625 1.09375 3.9453125 C0 2 0 2 0 0 Z " fill="#ACDEA9" transform="translate(800,92)"/>
<path d="M0 0 C0.99 0.33 1.98 0.66 3 1 C-0.625 6.875 -0.625 6.875 -4 8 C-2.87548273 5.0280615 -1.77706209 2.66559313 0 0 Z " fill="#9ACCA2" transform="translate(221,94)"/>
<path d="M0 0 C0.33 0.66 0.66 1.32 1 2 C-0.98 4.97 -0.98 4.97 -3 8 C-3.66 7.34 -4.32 6.68 -5 6 C-2.25 1.125 -2.25 1.125 0 0 Z " fill="#94C9A7" transform="translate(70,354)"/>
<path d="M0 0 C0.66 0 1.32 0 2 0 C1.67 1.98 1.34 3.96 1 6 C0.01 6.33 -0.98 6.66 -2 7 C-2.66 6.34 -3.32 5.68 -4 5 C-2.71937515 3.2925002 -1.38232443 1.62626404 0 0 Z " fill="#91C9B1" transform="translate(205,334)"/>
<path d="M0 0 C0.33 0.66 0.66 1.32 1 2 C0.22265625 3.7265625 0.22265625 3.7265625 -0.9375 5.625 C-1.618125 6.73875 -2.29875 7.8525 -3 9 C-3.33 9 -3.66 9 -4 9 C-4.25 6.75 -4.25 6.75 -4 4 C-2 1.6875 -2 1.6875 0 0 Z " fill="#83B9A2" transform="translate(805,879)"/>
<path d="M0 0 C0.66 0 1.32 0 2 0 C0.90931332 3.77545388 0.0916909 6.47043472 -3 9 C-2.5020163 5.26512223 -2.12508244 3.18762365 0 0 Z " fill="#86BBA4" transform="translate(819,853)"/>
<path d="M0 0 C0.33 0.66 0.66 1.32 1 2 C0.00390625 3.9453125 0.00390625 3.9453125 -1.4375 6.125 C-1.91058594 6.84945312 -2.38367188 7.57390625 -2.87109375 8.3203125 C-3.24363281 8.87460937 -3.61617188 9.42890625 -4 10 C-4.33 9.34 -4.66 8.68 -5 8 C-4.0625 5.375 -4.0625 5.375 -3 3 C-2.34 3 -1.68 3 -1 3 C-0.67 2.01 -0.34 1.02 0 0 Z " fill="#588F8D" transform="translate(430,635)"/>
<path d="M0 0 C3 1 3 1 4.25 2.8125 C5.11637742 5.33943414 4.88492145 6.52221994 4 9 C0 2.25 0 2.25 0 0 Z " fill="#82B9A8" transform="translate(73,632)"/>
<path d="M0 0 C0.33 0.66 0.66 1.32 1 2 C0.00390625 3.9453125 0.00390625 3.9453125 -1.4375 6.125 C-1.91058594 6.84945312 -2.38367188 7.57390625 -2.87109375 8.3203125 C-3.24363281 8.87460937 -3.61617187 9.42890625 -4 10 C-4.33 9.34 -4.66 8.68 -5 8 C-4.0625 5.375 -4.0625 5.375 -3 3 C-2.34 3 -1.68 3 -1 3 C-0.67 2.01 -0.34 1.02 0 0 Z " fill="#588F8C" transform="translate(573,626)"/>
<path d="M0 0 C3 1 3 1 4.25 2.8125 C5.11637742 5.33943414 4.88492145 6.52221994 4 9 C0 2.25 0 2.25 0 0 Z " fill="#82B9A8" transform="translate(66,620)"/>
<path d="M0 0 C2.32472205 2.85306797 3.7508258 5.54074837 5 9 C2 8 2 8 0.25 5.0625 C-0.1625 4.051875 -0.575 3.04125 -1 2 C-0.67 1.34 -0.34 0.68 0 0 Z " fill="#9ACCA2" transform="translate(304,532)"/>
<path d="M0 0 C0.66 0.66 1.32 1.32 2 2 C0 4 0 4 -2 5 C-2.33 5.66 -2.66 6.32 -3 7 C-3.66 6.01 -4.32 5.02 -5 4 C-3.35 2.68 -1.7 1.36 0 0 Z " fill="#91C9B1" transform="translate(138,372)"/>
<path d="M0 0 C1.32 0.66 2.64 1.32 4 2 C2.68 3.32 1.36 4.64 0 6 C-0.66 5.01 -1.32 4.02 -2 3 C-1.34 2.01 -0.68 1.02 0 0 Z " fill="#90C8B1" transform="translate(124,372)"/>
<path d="M0 0 C0.66 0.99 1.32 1.98 2 3 C-0.97 5.475 -0.97 5.475 -4 8 C-4 4.09161134 -2.49432124 2.88405893 0 0 Z " fill="#96C9A1" transform="translate(230,81)"/>
<path d="M0 0 C0 3.57575896 -1.08840607 5.05295935 -3 8 C-3.75 6.25 -3.75 6.25 -4 4 C-2.0625 1.75 -2.0625 1.75 0 0 Z " fill="#85BBA3" transform="translate(895,726)"/>
<path d="M0 0 C2.32472205 2.85306797 3.7508258 5.54074837 5 9 C2 8 2 8 0 5 C-0.125 2.3125 -0.125 2.3125 0 0 Z " fill="#99CBA2" transform="translate(358,624)"/>
</svg>
